<svg width="390" height="844" viewBox="0 0 390 844" fill="none" xmlns="http://www.w3.org/2000/svg">
<g clip-path="url(#clip0_46_14)">
<path d="M-358 292C-337.167 355.5 -253.3 479.1 -84.5 465.5C126.5 448.5 194 336 311.5 292C444 242.383 678.5 293.5 760.5 465.5" stroke="url(#paint0_linear_46_14)" stroke-width="110" stroke-linecap="round" stroke-linejoin="round"/>
<path d="M285.452 302.982C292.812 302.982 298.778 297.015 298.778 289.656C298.778 282.296 292.812 276.329 285.452 276.329C278.092 276.329 272.126 282.296 272.126 289.656C272.126 297.015 278.092 302.982 285.452 302.982Z" fill="#EBEBEB"/>
<path d="M286.062 302.669C293.085 302.669 298.778 296.976 298.778 289.953C298.778 282.93 293.085 277.237 286.062 277.237C279.039 277.237 273.346 282.93 273.346 289.953C273.346 296.976 279.039 302.669 286.062 302.669Z" fill="#DBDBDB"/>
<path d="M297.924 290.931C298.464 284.376 293.588 278.624 287.033 278.084C280.478 277.544 274.726 282.42 274.186 288.975C273.646 295.531 278.522 301.282 285.077 301.822C291.632 302.363 297.384 297.486 297.924 290.931Z" fill="white"/>
<path opacity="0.5" d="M297.704 287.427C292.284 290.709 283.37 296.104 278.383 299.059C276.976 297.87 275.863 296.372 275.131 294.683L291.608 279.41C293.148 280.22 294.492 281.357 295.545 282.742C296.599 284.128 297.335 285.727 297.704 287.427Z" fill="#EBEBEB"/>
<path opacity="0.5" d="M297.966 290.392C297.925 291.718 297.659 293.027 297.18 294.264L282.326 301.288C281.678 301.077 281.05 300.808 280.45 300.486C284.938 297.864 293.136 293.145 297.966 290.392Z" fill="#EBEBEB"/>
<path d="M286.183 278.906H285.951V280.711H286.183V278.906Z" fill="#C7C7C7"/>
<path d="M280.642 280.319L280.441 280.435L281.343 281.998L281.544 281.882L280.642 280.319Z" fill="#C7C7C7"/>
<path d="M276.543 284.318L276.427 284.519L277.991 285.421L278.107 285.22L276.543 284.318Z" fill="#C7C7C7"/>
<path d="M276.825 289.837H275.02V290.069H276.825V289.837Z" fill="#C7C7C7"/>
<path d="M277.999 294.464L276.436 295.367L276.552 295.568L278.115 294.665L277.999 294.464Z" fill="#C7C7C7"/>
<path d="M281.354 297.908L280.452 299.472L280.653 299.588L281.555 298.024L281.354 297.908Z" fill="#C7C7C7"/>
<path d="M286.183 299.195H285.951V301H286.183V299.195Z" fill="#C7C7C7"/>
<path d="M290.789 297.897L290.588 298.013L291.49 299.576L291.691 299.46L290.789 297.897Z" fill="#C7C7C7"/>
<path d="M294.115 294.462L293.999 294.663L295.562 295.565L295.678 295.364L294.115 294.462Z" fill="#C7C7C7"/>
<path d="M297.109 289.837H295.304V290.069H297.109V289.837Z" fill="#C7C7C7"/>
<path d="M295.573 284.322L294.01 285.225L294.126 285.426L295.689 284.523L295.573 284.322Z" fill="#C7C7C7"/>
<path d="M291.486 280.329L290.584 281.893L290.785 282.009L291.687 280.445L291.486 280.329Z" fill="#C7C7C7"/>
<path d="M286.238 279.723L286.632 290.755L285.497 290.74L285.931 279.718L286.238 279.723Z" fill="#C7C7C7"/>
<path d="M293.111 286.106L285.689 290.84L285.149 289.852L292.965 285.834L293.111 286.106Z" fill="#A6A6A6"/>
<path d="M286.45 289.953C286.45 290.03 286.428 290.105 286.385 290.169C286.342 290.233 286.282 290.282 286.211 290.312C286.14 290.341 286.062 290.349 285.986 290.334C285.911 290.319 285.842 290.282 285.788 290.228C285.733 290.173 285.696 290.104 285.681 290.029C285.666 289.954 285.674 289.875 285.703 289.805C285.733 289.734 285.783 289.673 285.846 289.63C285.91 289.588 285.985 289.565 286.062 289.565C286.165 289.565 286.264 289.606 286.337 289.679C286.409 289.751 286.45 289.85 286.45 289.953Z" fill="#C7C7C7"/>
<path d="M241.238 410.045C241.238 410.045 249.134 408.255 253.46 404.272C257.786 400.288 260.201 393.144 260.201 393.144C257.201 393.717 254.243 394.494 251.348 395.468C250.264 396.584 249.361 397.861 248.67 399.255C248.604 398.353 248.604 397.448 248.67 396.547C247.661 396.984 246.716 397.558 245.862 398.251C242.252 401.393 241.238 410.045 241.238 410.045Z" fill="#DBDBDB"/>
<path d="M255.275 396.613C256.349 395.867 257.443 395.151 258.517 394.399C258.531 394.391 258.541 394.377 258.545 394.361C258.549 394.345 258.546 394.328 258.537 394.314C258.529 394.3 258.515 394.289 258.499 394.286C258.483 394.282 258.466 394.285 258.452 394.293C256.435 395.509 254.418 396.814 252.472 398.166C251.796 398.64 251.131 399.134 250.455 399.638L250.591 399.401C250.828 399.008 251.095 398.619 251.327 398.231C251.823 397.439 252.384 396.69 253.006 395.993C253.006 395.967 253.006 395.927 252.966 395.957C252.351 396.663 251.736 397.364 251.176 398.115C250.909 398.473 250.672 398.846 250.425 399.225C250.304 399.421 250.183 399.618 250.072 399.819L249.951 400.021C248.942 400.823 247.934 401.66 246.991 402.542C246.406 403.09 245.84 403.655 245.292 404.236C245.599 403.283 245.867 402.315 246.22 401.377C246.22 401.371 246.217 401.364 246.212 401.36C246.208 401.355 246.201 401.352 246.194 401.352C246.188 401.352 246.181 401.355 246.177 401.36C246.172 401.364 246.169 401.371 246.169 401.377C245.826 402.386 245.448 403.354 245.161 404.372C244.556 405.025 243.981 405.697 243.436 406.389C243.436 406.349 243.436 406.304 243.462 406.263C243.552 405.89 243.648 405.517 243.744 405.149C243.936 404.433 244.147 403.727 244.389 403.026C244.843 401.571 245.561 400.212 246.507 399.018C246.532 398.993 246.507 398.957 246.472 398.982C244.991 400.826 243.956 402.986 243.447 405.295C243.359 405.631 243.278 405.967 243.204 406.304C243.164 406.48 243.119 406.667 243.089 406.848C242.847 407.184 242.615 407.512 242.393 407.831C241.045 409.889 239.925 412.087 239.05 414.386C238.068 416.967 237.227 419.6 236.529 422.272C236.529 422.282 236.533 422.293 236.541 422.3C236.548 422.308 236.558 422.312 236.569 422.312C236.58 422.312 236.59 422.308 236.598 422.3C236.605 422.293 236.609 422.282 236.609 422.272C238.157 417.653 239.731 412.969 242.373 408.84C242.932 407.97 243.534 407.128 244.178 406.319C245.484 406.23 246.774 405.973 248.015 405.552C249.37 405.096 250.662 404.471 251.862 403.692C252.547 403.234 253.205 402.737 253.833 402.204C253.863 402.179 253.833 402.139 253.803 402.164C252.699 403.052 251.482 403.788 250.183 404.352C248.906 404.938 247.571 405.386 246.199 405.688C245.62 405.814 245.03 405.91 244.435 405.991C245.166 405.09 245.943 404.229 246.764 403.409C247.031 403.142 247.304 402.905 247.581 402.633C248.5 401.99 249.475 401.431 250.495 400.964C251.791 400.339 253.062 399.673 254.342 399.023C255.068 398.655 255.784 398.282 256.51 397.924C256.541 397.924 256.51 397.863 256.485 397.878C255.184 398.503 253.868 399.093 252.558 399.693C251.327 400.253 250.082 400.823 248.897 401.488L248.746 401.574C249.815 400.646 250.924 399.759 252.058 398.902C253.124 398.125 254.196 397.362 255.275 396.613Z" fill="#A6A6A6"/>
<path d="M254.827 400.682C254.181 400.964 253.531 401.211 252.896 401.509C252.26 401.806 251.62 402.174 251 402.542C250.974 402.542 251 402.593 251.025 402.583C251.655 402.28 252.29 401.998 252.916 401.685C253.541 401.372 254.186 401.019 254.842 400.732C254.872 400.722 254.857 400.667 254.827 400.682Z" fill="#A6A6A6"/>
<path d="M215.604 370.268C217.062 372.149 217.886 374.444 217.959 376.823C217.989 377.529 217.873 378.517 217.793 379.676C219.763 380.819 221.509 382.31 222.946 384.078C221.369 383.163 219.558 382.73 217.737 382.833C217.781 383.626 217.882 384.414 218.04 385.192C219.188 385.191 220.326 385.415 221.388 385.853C220.349 385.84 219.318 386.044 218.362 386.453C219.769 390.93 223.954 395.529 235.505 397.48C236.728 391.99 236.004 386.245 233.458 381.229C230 374.423 215.604 370.268 215.604 370.268Z" fill="#DBDBDB"/>
<path d="M239.499 416.635C239.304 414.722 239.055 412.816 238.752 410.917C238.168 407.112 237.391 403.339 236.423 399.613C235.974 397.863 235.42 396.142 234.764 394.46C234.799 394.154 234.815 393.845 234.81 393.537C234.81 393.164 234.81 392.796 234.81 392.423C234.81 391.687 234.769 390.945 234.704 390.209C234.586 388.749 234.348 387.3 233.993 385.878C233.781 385.056 233.539 384.245 233.297 383.433C233.297 383.426 233.294 383.42 233.29 383.415C233.285 383.41 233.278 383.408 233.272 383.408C233.265 383.408 233.259 383.41 233.254 383.415C233.249 383.42 233.246 383.426 233.246 383.433C233.629 384.852 233.913 386.296 234.099 387.754C234.304 389.191 234.433 390.639 234.487 392.09C234.487 392.488 234.487 392.882 234.487 393.28C234.487 393.446 234.487 393.618 234.487 393.784C233.922 392.402 233.274 391.055 232.546 389.75C231.37 387.686 230.048 385.71 228.588 383.836C228.585 383.618 228.555 383.401 228.497 383.191C228.441 382.934 228.386 382.687 228.325 382.419C228.208 381.892 228.077 381.367 227.932 380.846C227.645 379.797 227.267 378.789 226.924 377.755C226.924 377.749 226.921 377.742 226.916 377.738C226.912 377.733 226.905 377.73 226.899 377.73C226.892 377.73 226.885 377.733 226.881 377.738C226.876 377.742 226.873 377.749 226.873 377.755C227.181 378.764 227.378 379.838 227.615 380.876C227.73 381.381 227.846 381.885 227.957 382.424L228.124 383.201C228.122 383.219 228.122 383.238 228.124 383.256C227.655 382.666 227.181 382.087 226.692 381.517C224.488 378.93 222.068 376.545 219.633 374.176C219.335 373.883 219.028 373.601 218.725 373.313C218.7 373.288 218.665 373.313 218.69 373.354C221.014 375.779 223.304 378.234 225.472 380.801C225.976 381.411 226.48 382.031 226.984 382.656C226.722 382.475 226.48 382.303 226.198 382.152C225.527 381.713 224.846 381.285 224.146 380.892C223.445 380.498 222.739 380.115 222.018 379.762C221.297 379.409 220.505 379.092 219.769 378.678C219.739 378.678 219.714 378.713 219.744 378.723C220.473 379.063 221.178 379.454 221.851 379.893C222.552 380.312 223.258 380.73 223.944 381.169C224.63 381.608 225.305 382.021 225.961 382.46C226.525 382.828 227.075 383.226 227.66 383.559C228.999 385.281 230.234 387.081 231.361 388.949C232.058 390.124 232.696 391.334 233.272 392.574L232.858 392.393L231.799 391.924L229.757 391.031C228.462 390.471 227.146 389.952 225.875 389.332C225.159 388.997 224.466 388.612 223.803 388.182C223.772 388.182 223.747 388.208 223.778 388.228C226.142 389.861 228.82 391.011 231.421 392.171L232.556 392.675C232.868 392.811 233.181 392.967 233.504 393.088C234.279 394.823 234.931 396.611 235.455 398.438C236.491 402.115 237.333 405.845 237.976 409.611C238.636 413.383 239.085 417.174 239.433 420.996C239.473 421.47 239.519 421.949 239.569 422.423C239.569 422.463 239.585 422.502 239.614 422.53C239.642 422.558 239.68 422.574 239.72 422.574C239.761 422.574 239.799 422.558 239.827 422.53C239.856 422.502 239.872 422.463 239.872 422.423C239.902 420.477 239.7 418.561 239.499 416.635Z" fill="#A6A6A6"/>
<path d="M232.475 384.739C232.263 383.569 231.971 382.419 231.633 381.27C231.633 381.263 231.63 381.257 231.626 381.252C231.621 381.247 231.614 381.245 231.608 381.245C231.601 381.245 231.595 381.247 231.59 381.252C231.585 381.257 231.583 381.263 231.583 381.27C231.875 382.399 232.087 383.549 232.293 384.693C232.5 385.838 232.702 387.033 232.868 388.223H232.898C232.823 387.054 232.682 385.891 232.475 384.739Z" fill="#A6A6A6"/>
<path d="M227.498 387.925C226.691 387.398 225.849 386.926 224.977 386.513C224.554 386.297 224.125 386.09 223.702 385.883C223.278 385.677 222.804 385.49 222.371 385.273C222.34 385.273 222.31 385.303 222.345 385.319C222.764 385.53 223.167 385.787 223.581 386.014L224.861 386.715C225.693 387.198 226.547 387.639 227.423 388.036C227.438 388.046 227.456 388.05 227.473 388.047C227.491 388.043 227.506 388.033 227.516 388.019C227.526 388.004 227.53 387.986 227.527 387.968C227.523 387.951 227.513 387.935 227.498 387.925Z" fill="#A6A6A6"/>
<path opacity="0.1" d="M241.385 396.371C241.385 396.371 248.685 394.626 252.038 389.725C255.245 385.046 256.279 377.07 256.359 376.369C256.228 377.014 254.721 383.982 249.749 387.229C245.943 389.72 242.262 391.767 241.385 396.371Z" fill="#A6A6A6"/>
<path d="M248.126 383.75C246.827 384.945 245.893 386.484 245.433 388.187C245.433 388.187 245.433 388.187 245.433 388.187C245.972 386.525 246.9 385.016 248.141 383.786C248.186 383.766 248.151 383.725 248.126 383.75Z" fill="#A6A6A6"/>
<path d="M241.384 396.371C241.384 396.371 248.685 394.626 252.038 389.725C255.245 385.046 256.279 377.07 256.359 376.369C256.362 376.352 256.362 376.335 256.359 376.318C256.359 376.318 252.83 381.3 249.174 382.571C245.519 383.841 240.311 388.233 241.384 396.371Z" fill="#DBDBDB"/>
<path d="M255.074 379.066C254.42 380.41 253.665 381.701 252.815 382.929C251.956 384.096 250.938 385.136 249.79 386.019C248.781 386.806 247.773 387.532 246.764 388.293L246.79 388.258C246.976 387.976 247.178 387.708 247.39 387.441C247.803 386.907 248.262 386.403 248.721 385.903C249.628 384.92 250.556 383.952 251.368 382.878C251.821 382.288 252.214 381.655 252.543 380.987C252.543 380.957 252.507 380.942 252.492 380.987C251.307 383.458 248.937 385.021 247.253 387.119C247.012 387.414 246.787 387.722 246.578 388.041C246.409 388.273 246.267 388.524 246.154 388.787C245.23 389.53 244.394 390.376 243.663 391.308C243.727 390.83 243.825 390.356 243.956 389.892C244.125 389.241 244.386 388.618 244.732 388.041C244.732 388.011 244.702 387.981 244.687 388.011C244.332 388.589 244.046 389.207 243.835 389.851C243.681 390.364 243.591 390.894 243.568 391.43C243.209 391.913 242.88 392.418 242.584 392.942L242.675 392.473C242.816 391.747 242.978 391.021 243.179 390.3C243.523 388.838 244.117 387.446 244.934 386.186C244.934 386.186 244.909 386.13 244.889 386.156C244.053 387.402 243.398 388.76 242.942 390.189C242.711 390.905 242.524 391.636 242.363 392.367C242.282 392.73 242.206 393.088 242.141 393.451C242.105 393.638 242.065 393.83 242.035 394.021C241.311 395.612 240.745 397.271 240.346 398.972C239.633 402.019 239.116 405.107 238.798 408.22C238.418 411.474 238.25 414.75 238.294 418.026C238.294 418.435 238.324 418.848 238.344 419.257C238.344 419.362 238.511 419.378 238.516 419.257C238.586 417.633 238.626 416.015 238.722 414.396C238.818 412.778 238.959 411.154 239.136 409.541C239.463 406.367 239.968 403.214 240.648 400.097C241.238 397.43 242.005 394.737 243.467 392.398C244.194 391.235 245.081 390.18 246.104 389.266C247.112 388.349 248.247 387.542 249.326 386.69C250.419 385.86 251.412 384.905 252.285 383.846C253.176 382.666 253.953 381.403 254.605 380.075L255.109 379.066C255.134 379.066 255.089 379.036 255.074 379.066Z" fill="#A6A6A6"/>
<path d="M214.596 393.144C214.596 393.144 214.48 403.52 220.687 406.515C226.894 409.51 230.216 407.02 234.437 408.028C234.275 407.781 231.265 403.455 226.475 402.26C221.529 401.025 216.073 397.465 214.596 393.144Z" fill="#DBDBDB"/>
<path opacity="0.1" d="M214.596 393.144C214.596 393.144 214.48 403.52 220.687 406.515C226.894 409.51 230.216 407.02 234.437 408.028C232.209 406.964 229.826 406.261 227.378 405.946C223.445 405.467 215.968 402.915 214.596 393.144Z" fill="#A6A6A6"/>
<path d="M234.83 408.204C234.091 407.532 233.259 406.97 232.359 406.535C232.228 406.47 232.092 406.42 231.956 406.364C231.82 406.309 231.82 406.203 231.749 406.122C231.563 405.93 231.366 405.744 231.164 405.567C230.775 405.232 230.356 404.932 229.914 404.67C228.905 404.065 227.761 403.662 226.707 403.082C226.677 403.082 226.652 403.112 226.707 403.127C227.211 403.394 227.715 403.692 228.22 403.989C228.724 404.287 229.228 404.549 229.692 404.856C230.125 405.132 230.536 405.441 230.922 405.779C231.033 405.875 231.134 405.981 231.24 406.087C230.554 405.853 229.853 405.666 229.142 405.527C228.008 405.295 226.858 405.134 225.724 404.892C225.167 404.773 224.616 404.625 224.075 404.448C223.571 404.035 223.067 403.621 222.562 403.172C221.972 402.631 221.433 402.035 220.954 401.393C220.954 401.393 220.888 401.393 220.909 401.423C221.662 402.441 222.515 403.382 223.455 404.231C223.188 404.125 222.92 404.019 222.663 403.898C220.531 402.945 218.701 401.424 217.374 399.502C217.374 399.472 217.309 399.502 217.329 399.527C218.455 401.178 219.91 402.577 221.604 403.636C222.452 404.167 223.359 404.597 224.307 404.917C225.409 405.257 226.532 405.521 227.67 405.709C228.783 405.891 229.882 406.152 230.957 406.49C231.947 406.828 232.877 407.317 233.715 407.942C235.297 409.17 236.571 410.75 237.437 412.556C238.543 414.942 239.236 417.5 239.484 420.119C239.484 420.23 239.67 420.23 239.66 420.119C239.358 415.778 238.193 411.235 234.83 408.204Z" fill="#A6A6A6"/>
<path d="M227.625 404.846C227.301 404.362 226.863 403.966 226.349 403.692C225.763 403.383 225.247 402.956 224.836 402.436C224.836 402.406 224.771 402.436 224.791 402.462C225.164 402.937 225.618 403.343 226.132 403.662C226.696 403.962 227.194 404.373 227.594 404.872L227.625 404.846Z" fill="#A6A6A6"/>
<path d="M230.922 415.868L231.204 421.576L232.067 439.016H245.085L245.952 421.576L246.235 415.868H230.922Z" fill="#EBEBEB"/>
<path d="M230.922 415.868L231.204 421.576H245.952L246.235 415.868H230.922Z" fill="#DBDBDB"/>
<path d="M230.01 418.934H247.153V413.489H230.01V418.934Z" fill="#EBEBEB"/>
<path d="M108.209 327.365L105.97 332.301L107.483 332.982C107.699 333.083 107.884 333.242 108.016 333.441C108.147 333.64 108.221 333.873 108.229 334.111C108.229 334.379 108.269 334.646 108.309 334.918C108.347 335.152 108.319 335.391 108.231 335.611C108.142 335.83 107.995 336.021 107.805 336.164L106.454 337.127L109.61 341.533L110.962 340.57C111.156 340.432 111.384 340.35 111.622 340.334C111.86 340.318 112.097 340.368 112.308 340.48C112.547 340.605 112.793 340.718 113.044 340.817C113.267 340.902 113.462 341.047 113.608 341.235C113.754 341.424 113.845 341.649 113.871 341.886L114.032 343.54L119.422 343.006L119.261 341.347C119.239 341.11 119.284 340.872 119.39 340.659C119.496 340.446 119.659 340.267 119.861 340.142L120.194 339.915C120.299 339.839 120.41 339.759 120.511 339.673C120.695 339.522 120.916 339.426 121.151 339.393C121.386 339.361 121.625 339.395 121.842 339.491L123.355 340.182L125.594 335.246L124.081 334.56C123.864 334.459 123.68 334.3 123.547 334.101C123.415 333.901 123.34 333.67 123.33 333.431C123.32 333.162 123.294 332.895 123.254 332.629C123.216 332.395 123.243 332.155 123.332 331.936C123.421 331.716 123.568 331.525 123.758 331.384L125.11 330.416L121.953 326.009L120.602 326.977C120.408 327.114 120.179 327.195 119.941 327.21C119.703 327.226 119.466 327.174 119.256 327.063C119.018 326.941 118.774 326.832 118.525 326.735C118.307 326.651 118.116 326.509 117.972 326.324C117.829 326.139 117.74 325.918 117.713 325.686L117.547 324.032L112.157 324.567L112.318 326.221C112.337 326.451 112.293 326.683 112.191 326.891C112.089 327.098 111.932 327.275 111.738 327.4C111.623 327.47 111.512 327.546 111.405 327.627C111.294 327.703 111.188 327.784 111.083 327.864C110.9 328.017 110.677 328.116 110.441 328.149C110.205 328.182 109.964 328.148 109.746 328.051L108.209 327.365ZM113.195 330.163C113.908 329.649 114.757 329.357 115.636 329.326C116.514 329.294 117.383 329.524 118.13 329.986C118.878 330.448 119.472 331.122 119.837 331.921C120.202 332.721 120.321 333.611 120.18 334.479C120.038 335.347 119.643 336.153 119.043 336.796C118.443 337.438 117.666 337.889 116.811 338.089C115.955 338.29 115.059 338.233 114.235 337.924C113.412 337.615 112.699 337.069 112.187 336.355C111.5 335.4 111.221 334.211 111.411 333.049C111.602 331.888 112.245 330.85 113.2 330.163H113.195Z" fill="#EBEBEB"/>
<path d="M287.706 377.004L284.418 378.9L284.998 379.908C285.082 380.054 285.123 380.219 285.118 380.387C285.112 380.554 285.061 380.717 284.968 380.856C284.867 381.013 284.771 381.179 284.686 381.361C284.611 381.51 284.497 381.637 284.356 381.725C284.214 381.814 284.051 381.863 283.884 381.865H282.719V385.661H283.884C284.051 385.663 284.214 385.712 284.356 385.801C284.497 385.89 284.611 386.016 284.686 386.166C284.77 386.339 284.865 386.507 284.968 386.67C285.061 386.809 285.112 386.972 285.118 387.139C285.123 387.307 285.082 387.472 284.998 387.618L284.418 388.626L287.706 390.522L288.291 389.514C288.376 389.37 288.499 389.252 288.647 389.174C288.794 389.096 288.961 389.06 289.128 389.07H289.405H289.687C289.853 389.06 290.018 389.096 290.165 389.173C290.311 389.25 290.434 389.366 290.519 389.508L291.104 390.517L294.392 388.621L293.812 387.613C293.728 387.467 293.687 387.301 293.693 387.134C293.699 386.966 293.753 386.803 293.847 386.665C293.951 386.502 294.045 386.334 294.129 386.161C294.203 386.01 294.317 385.883 294.458 385.794C294.6 385.705 294.764 385.657 294.931 385.656H296.091V381.86H294.931C294.764 381.859 294.6 381.811 294.458 381.722C294.317 381.633 294.203 381.506 294.129 381.355C294.044 381.189 293.948 381.028 293.847 380.851C293.753 380.713 293.7 380.552 293.694 380.385C293.687 380.218 293.728 380.053 293.812 379.908L294.392 378.9L291.104 377.004L290.524 378.013C290.439 378.156 290.316 378.274 290.168 378.352C290.021 378.431 289.854 378.467 289.687 378.456H289.405H289.128C288.961 378.467 288.794 378.431 288.647 378.352C288.499 378.274 288.376 378.156 288.291 378.013L287.706 377.004ZM289.405 380.634C290.021 380.634 290.622 380.817 291.134 381.159C291.646 381.501 292.044 381.987 292.28 382.556C292.515 383.125 292.576 383.751 292.456 384.354C292.335 384.958 292.039 385.512 291.603 385.947C291.167 386.382 290.613 386.678 290.009 386.797C289.405 386.917 288.779 386.854 288.211 386.618C287.643 386.382 287.157 385.982 286.816 385.47C286.475 384.958 286.293 384.356 286.294 383.74C286.295 383.331 286.378 382.926 286.536 382.549C286.694 382.172 286.925 381.829 287.216 381.542C287.507 381.254 287.852 381.027 288.231 380.873C288.61 380.719 289.016 380.641 289.425 380.645L289.405 380.634Z" fill="#EBEBEB"/>
<path d="M95.8908 317.77L98.195 320.795L99.1177 320.089C99.2503 319.987 99.4092 319.924 99.576 319.908C99.7429 319.892 99.9109 319.923 100.061 319.999C100.232 320.079 100.408 320.15 100.565 320.215C100.722 320.27 100.862 320.368 100.968 320.497C101.073 320.626 101.142 320.781 101.165 320.947L101.316 322.101L105.082 321.597L104.931 320.447C104.91 320.281 104.936 320.113 105.006 319.961C105.075 319.808 105.185 319.678 105.325 319.585C105.481 319.479 105.627 319.363 105.773 319.242C105.899 319.133 106.053 319.06 106.218 319.032C106.382 319.005 106.551 319.023 106.706 319.086L107.78 319.535L109.237 316.005L108.178 315.602C108.025 315.536 107.894 315.429 107.798 315.293C107.702 315.157 107.645 314.997 107.634 314.831C107.634 314.735 107.634 314.644 107.604 314.548C107.573 314.452 107.604 314.367 107.563 314.276C107.529 314.112 107.542 313.942 107.6 313.785C107.658 313.628 107.759 313.491 107.891 313.389L108.819 312.678L106.514 309.652L105.587 310.358C105.454 310.46 105.295 310.522 105.128 310.538C104.962 310.554 104.794 310.523 104.644 310.449C104.48 310.367 104.312 310.295 104.14 310.232C103.982 310.177 103.843 310.08 103.737 309.951C103.631 309.822 103.563 309.666 103.54 309.501L103.388 308.346L99.6219 308.851L99.7732 310.005C99.7934 310.171 99.7679 310.339 99.6995 310.491C99.631 310.643 99.5222 310.773 99.385 310.868C99.2291 310.973 99.0793 311.088 98.9362 311.21C98.8094 311.32 98.6547 311.393 98.4893 311.42C98.3238 311.448 98.154 311.429 97.9984 311.367L96.9244 310.918L95.4673 314.447L96.5412 314.896C96.6828 314.958 96.8059 315.056 96.8987 315.18C96.9914 315.303 97.0507 315.449 97.0707 315.602L97.1009 315.879C97.1009 315.975 97.1261 316.066 97.1463 316.157C97.1786 316.321 97.1645 316.491 97.1058 316.648C97.047 316.804 96.9458 316.942 96.8135 317.044L95.8908 317.77ZM99.269 315.612C99.1903 315.002 99.2943 314.382 99.5679 313.831C99.8414 313.28 100.272 312.822 100.806 312.516C101.34 312.21 101.952 312.069 102.566 312.11C103.18 312.152 103.767 312.375 104.254 312.751C104.742 313.127 105.106 313.638 105.303 314.222C105.499 314.805 105.518 315.433 105.357 316.027C105.197 316.621 104.863 317.154 104.4 317.558C103.936 317.963 103.363 318.221 102.753 318.3C102.347 318.352 101.934 318.325 101.539 318.218C101.144 318.11 100.774 317.926 100.45 317.676C100.126 317.425 99.855 317.113 99.6523 316.757C99.4497 316.401 99.3194 316.008 99.269 315.602V315.612Z" fill="#EBEBEB"/>
<path d="M86.3159 439.016L113.22 438.89L140.12 438.85L193.923 438.764L247.727 438.845L274.627 438.89L301.531 439.016L274.627 439.137L247.727 439.183L193.923 439.269L140.12 439.183L113.22 439.137L86.3159 439.016Z" fill="#263238"/>
<path d="M263.045 460.395C286.216 460.395 305 457.41 305 453.729C305 450.048 286.216 447.064 263.045 447.064C239.874 447.064 221.09 450.048 221.09 453.729C221.09 457.41 239.874 460.395 263.045 460.395Z" fill="url(#paint1_linear_46_14)"/>
<path d="M178.999 479.096C228.485 479.096 268.601 473.547 268.601 466.702C268.601 459.858 228.485 454.309 178.999 454.309C129.513 454.309 89.3967 459.858 89.3967 466.702C89.3967 473.547 129.513 479.096 178.999 479.096Z" fill="url(#paint2_linear_46_14)"/>
<path d="M262.359 275.437H125.407V365.957H262.359V275.437Z" fill="#EBEBEB"/>
<path d="M265.702 271H122.15V275.432H265.702V271Z" fill="#455A64"/>
<path d="M153.632 287.835H132.007V313.459H153.632V287.835Z" fill="white"/>
<path d="M143.599 289.58C143.6 289.735 143.555 289.887 143.469 290.016C143.384 290.145 143.262 290.246 143.119 290.306C142.976 290.366 142.818 290.382 142.666 290.352C142.514 290.322 142.374 290.247 142.265 290.138C142.155 290.028 142.081 289.888 142.051 289.736C142.021 289.584 142.037 289.427 142.096 289.284C142.156 289.141 142.257 289.019 142.386 288.933C142.516 288.848 142.667 288.803 142.822 288.803C142.924 288.803 143.025 288.824 143.12 288.863C143.214 288.902 143.299 288.959 143.371 289.031C143.444 289.103 143.501 289.189 143.54 289.283C143.579 289.377 143.599 289.478 143.599 289.58Z" fill="#455A64"/>
<path d="M136.122 292.968C138.31 292.802 140.498 292.792 142.676 292.767C144.854 292.741 147.048 292.802 149.231 292.968C147.043 293.14 144.859 293.15 142.676 293.175C140.493 293.2 138.31 293.14 136.122 292.968Z" fill="#EBEBEB"/>
<path d="M136.122 294.995C138.492 294.72 140.886 294.72 143.256 294.995C140.886 295.264 138.492 295.264 136.122 294.995Z" fill="#EBEBEB"/>
<path d="M136.122 297.017C137.634 296.861 139.147 296.825 140.659 296.815C142.172 296.805 143.685 296.861 145.197 297.017C143.685 297.178 142.172 297.214 140.659 297.224C139.147 297.234 137.644 297.178 136.122 297.017Z" fill="#EBEBEB"/>
<path d="M136.122 299.044C138.022 298.888 139.923 298.847 141.824 298.842C143.725 298.837 145.626 298.883 147.522 299.044C145.626 299.205 143.725 299.241 141.824 299.246C139.923 299.251 138.022 299.2 136.122 299.044Z" fill="#EBEBEB"/>
<path d="M136.122 301.071C137.775 300.909 139.424 300.874 141.073 300.864C142.722 300.854 144.375 300.909 146.029 301.071C144.375 301.227 142.727 301.267 141.073 301.273C139.419 301.278 137.775 301.227 136.122 301.071Z" fill="#EBEBEB"/>
<path d="M136.122 303.093C138.234 302.926 140.347 302.916 142.459 302.891C144.572 302.866 146.69 302.926 148.802 303.093C146.69 303.264 144.577 303.274 142.459 303.299C140.342 303.325 138.234 303.264 136.122 303.093Z" fill="#EBEBEB"/>
<path d="M136.122 305.12C138.844 304.844 141.587 304.844 144.31 305.12C141.587 305.388 138.844 305.388 136.122 305.12Z" fill="#EBEBEB"/>
<path d="M136.122 307.141C138.31 306.975 140.498 306.965 142.676 306.94C144.854 306.915 147.048 306.975 149.231 307.141C147.043 307.313 144.859 307.323 142.676 307.348C140.493 307.373 138.31 307.313 136.122 307.141Z" fill="#EBEBEB"/>
<path d="M136.122 309.168C138.31 309.002 140.498 308.992 142.676 308.967C144.854 308.941 147.048 308.997 149.231 309.168C147.043 309.34 144.859 309.35 142.676 309.37C140.493 309.39 138.31 309.335 136.122 309.168Z" fill="#EBEBEB"/>
<path d="M255.966 309.849H239.035V329.911H255.966V309.849Z" fill="white"/>
<path d="M248.085 311.604C248.086 311.72 248.053 311.833 247.989 311.93C247.925 312.027 247.834 312.103 247.728 312.148C247.621 312.193 247.503 312.205 247.389 312.183C247.276 312.161 247.171 312.106 247.089 312.024C247.006 311.942 246.95 311.838 246.927 311.725C246.904 311.611 246.915 311.493 246.96 311.386C247.004 311.279 247.079 311.187 247.175 311.123C247.271 311.058 247.384 311.024 247.5 311.024C247.577 311.023 247.653 311.038 247.724 311.067C247.795 311.095 247.859 311.138 247.914 311.192C247.968 311.246 248.011 311.31 248.041 311.381C248.07 311.451 248.085 311.527 248.085 311.604Z" fill="#455A64"/>
<path d="M241.748 315.32C242.918 315.154 244.106 315.154 245.277 315.32C244.106 315.485 242.918 315.485 241.748 315.32Z" fill="#EBEBEB"/>
<path d="M241.748 316.752C243.275 316.577 244.818 316.577 246.346 316.752C244.818 316.92 243.276 316.92 241.748 316.752Z" fill="#EBEBEB"/>
<path d="M241.748 318.179C243.163 318.01 244.593 318.01 246.008 318.179C244.593 318.353 243.162 318.353 241.748 318.179Z" fill="#EBEBEB"/>
<path d="M241.748 319.636C243.163 319.468 244.593 319.468 246.008 319.636C244.593 319.804 243.163 319.804 241.748 319.636Z" fill="#EBEBEB"/>
<path d="M241.748 321.042C242.975 320.867 244.221 320.867 245.448 321.042C244.221 321.21 242.975 321.21 241.748 321.042Z" fill="#EBEBEB"/>
<path d="M241.748 322.469C243.323 322.301 244.912 322.301 246.487 322.469C244.912 322.644 243.323 322.644 241.748 322.469Z" fill="#EBEBEB"/>
<path d="M241.748 323.901C243.046 323.733 244.361 323.733 245.66 323.901C244.361 324.069 243.046 324.069 241.748 323.901Z" fill="#EBEBEB"/>
<path d="M241.748 325.333C243.377 325.158 245.019 325.158 246.648 325.333C245.019 325.501 243.377 325.501 241.748 325.333Z" fill="#EBEBEB"/>
<path d="M241.748 326.76C243.377 326.592 245.019 326.592 246.648 326.76C245.019 326.935 243.377 326.935 241.748 326.76Z" fill="#EBEBEB"/>
<path d="M248.746 315.32C250.291 315.152 251.85 315.152 253.395 315.32C251.85 315.488 250.291 315.488 248.746 315.32Z" fill="#EBEBEB"/>
<path d="M248.746 316.752C249.757 316.577 250.79 316.577 251.801 316.752C250.79 316.92 249.757 316.92 248.746 316.752Z" fill="#EBEBEB"/>
<path d="M248.746 318.179C250.2 318.01 251.668 318.01 253.122 318.179C251.669 318.353 250.199 318.353 248.746 318.179Z" fill="#EBEBEB"/>
<path d="M248.746 319.636C250.159 319.468 251.588 319.468 253.001 319.636C251.588 319.804 250.159 319.804 248.746 319.636Z" fill="#EBEBEB"/>
<path d="M248.746 321.042C250.291 320.868 251.85 320.868 253.395 321.042C251.85 321.21 250.291 321.21 248.746 321.042Z" fill="#EBEBEB"/>
<path d="M248.746 322.469C249.974 322.301 251.219 322.301 252.447 322.469C251.219 322.644 249.973 322.644 248.746 322.469Z" fill="#EBEBEB"/>
<path d="M248.746 323.901C250.2 323.733 251.668 323.733 253.122 323.901C251.668 324.069 250.2 324.069 248.746 323.901Z" fill="#EBEBEB"/>
<path d="M248.746 325.333C249.867 325.158 251.008 325.158 252.129 325.333C251.008 325.501 249.867 325.501 248.746 325.333Z" fill="#EBEBEB"/>
<path d="M248.746 326.76C249.822 326.592 250.917 326.592 251.993 326.76C250.918 326.935 249.821 326.935 248.746 326.76Z" fill="#EBEBEB"/>
<path d="M162.718 303.627H149.71V316.636H162.718V303.627Z" fill="#0085CC"/>
<path d="M156.99 304.948C156.99 305.102 156.945 305.252 156.86 305.38C156.774 305.507 156.653 305.607 156.511 305.666C156.369 305.724 156.213 305.74 156.062 305.71C155.912 305.68 155.774 305.606 155.665 305.497C155.556 305.389 155.482 305.25 155.452 305.1C155.422 304.949 155.438 304.793 155.497 304.651C155.555 304.509 155.655 304.388 155.783 304.303C155.91 304.217 156.06 304.172 156.214 304.172C156.316 304.172 156.417 304.192 156.511 304.231C156.605 304.27 156.691 304.327 156.763 304.399C156.835 304.471 156.892 304.557 156.931 304.651C156.97 304.745 156.99 304.846 156.99 304.948Z" fill="#455A64"/>
<path d="M262.359 275.437H125.407V281.195H262.359V275.437Z" fill="#DBDBDB"/>
<path d="M168.814 288.33L190.772 288.284L212.736 288.33L190.772 288.375L168.814 288.33Z" fill="#C7C7C7"/>
<path d="M168.814 290.119L190.772 290.074L212.736 290.119L190.772 290.17L168.814 290.119Z" fill="#C7C7C7"/>
<path d="M168.814 291.914L190.772 291.864L212.736 291.914L190.772 291.96L168.814 291.914Z" fill="#C7C7C7"/>
<path d="M168.814 293.704L190.772 293.654L212.736 293.704L190.772 293.75L168.814 293.704Z" fill="#C7C7C7"/>
<path d="M168.814 295.494L190.772 295.449L212.736 295.494L190.772 295.54L168.814 295.494Z" fill="#C7C7C7"/>
<path d="M168.814 297.284L190.772 297.239L212.736 297.284L190.772 297.335L168.814 297.284Z" fill="#C7C7C7"/>
<path d="M168.814 299.074L190.772 299.029L212.736 299.074L190.772 299.125L168.814 299.074Z" fill="#C7C7C7"/>
<path d="M168.814 300.869L190.772 300.819L212.736 300.869L190.772 300.915L168.814 300.869Z" fill="#C7C7C7"/>
<path d="M168.814 302.659L190.772 302.609L212.736 302.659L190.772 302.704L168.814 302.659Z" fill="#C7C7C7"/>
<path d="M168.814 304.449L190.772 304.404L212.736 304.449L190.772 304.494L168.814 304.449Z" fill="#C7C7C7"/>
<path d="M168.814 306.239L190.772 306.194L212.736 306.239L190.772 306.289L168.814 306.239Z" fill="#C7C7C7"/>
<path d="M168.814 308.034L190.772 307.983L212.736 308.034L190.772 308.079L168.814 308.034Z" fill="#C7C7C7"/>
<path d="M168.814 309.824L190.772 309.773L212.736 309.824L190.772 309.869L168.814 309.824Z" fill="#C7C7C7"/>
<path d="M168.814 311.614L190.772 311.568L212.736 311.614L190.772 311.659L168.814 311.614Z" fill="#C7C7C7"/>
<path d="M168.814 313.404L190.772 313.358L212.736 313.404L190.772 313.454L168.814 313.404Z" fill="#C7C7C7"/>
<path d="M176.791 300.869H173.458V315.496H176.791V300.869Z" fill="#0085CC"/>
<path d="M182.967 294.683H179.634V315.496H182.967V294.683Z" fill="white"/>
<path d="M189.149 291.874H185.816V315.496H189.149V291.874Z" fill="#0085CC"/>
<path d="M195.325 295.535H191.992V315.491H195.325V295.535Z" fill="white"/>
<path d="M201.507 296.624H198.174V315.491H201.507V296.624Z" fill="#0085CC"/>
<path d="M207.683 307.318H204.351V315.496H207.683V307.318Z" fill="white"/>
<path d="M170.004 287.074L170.08 294.178L170.13 301.283C170.164 306.022 170.181 310.758 170.181 315.491L170.004 315.32H180.688H191.367L202.051 315.38L212.736 315.481L202.051 315.587L191.367 315.647H180.688H170.004H169.828V315.471C169.828 310.735 169.844 305.999 169.878 301.262L169.928 294.158L170.004 287.074Z" fill="#C7C7C7"/>
<path d="M176.791 316.994H173.458V317.296H176.791V316.994Z" fill="#C7C7C7"/>
<path d="M182.967 316.994H179.634V317.296H182.967V316.994Z" fill="#C7C7C7"/>
<path d="M189.149 316.994H185.816V317.296H189.149V316.994Z" fill="#C7C7C7"/>
<path d="M195.325 316.994H191.992V317.296H195.325V316.994Z" fill="#C7C7C7"/>
<path d="M201.507 316.994H198.174V317.296H201.507V316.994Z" fill="#C7C7C7"/>
<path d="M207.683 316.994H204.351V317.296H207.683V316.994Z" fill="#C7C7C7"/>
<path d="M150.95 354.572H137.725V355.707H150.95V354.572Z" fill="#C7C7C7"/>
<path d="M155.594 356.942H137.725V358.076H155.594V356.942Z" fill="#C7C7C7"/>
<path d="M147.209 359.317H137.725V360.451H147.209V359.317Z" fill="#C7C7C7"/>
<path d="M134.775 354.572H132.017V357.33H134.775V354.572Z" fill="#0085CC"/>
<path d="M236.352 288.279H223.127V289.414H236.352V288.279Z" fill="#C7C7C7"/>
<path d="M240.996 290.649H223.127V291.783H240.996V290.649Z" fill="#C7C7C7"/>
<path d="M232.611 293.024H223.127V294.158H232.611V293.024Z" fill="#C7C7C7"/>
<path d="M220.177 288.279H217.419V291.037H220.177V288.279Z" fill="#0085CC"/>
<path d="M238.848 297.461H223.127V298.595H238.848V297.461Z" fill="#C7C7C7"/>
<path d="M235.561 299.83H223.127V300.965H235.561V299.83Z" fill="#C7C7C7"/>
<path d="M240.996 302.205H223.127V303.34H240.996V302.205Z" fill="#C7C7C7"/>
<path d="M220.177 297.461H217.419V300.219H220.177V297.461Z" fill="white"/>
<path d="M191.281 325.439H132.007V351.365H191.281V325.439Z" fill="#DBDBDB"/>
<path d="M188.135 328.711H135.158V330.95H188.135V328.711Z" fill="white"/>
<path d="M162.244 328.711H135.158V330.95H162.244V328.711Z" fill="#0085CC"/>
<path d="M188.135 332.997H135.158V335.236H188.135V332.997Z" fill="white"/>
<path d="M183.754 332.997H135.158V335.236H183.754V332.997Z" fill="#0085CC"/>
<path d="M188.135 337.283H135.158V339.522H188.135V337.283Z" fill="white"/>
<path d="M150.834 337.283H135.158V339.522H150.834V337.283Z" fill="#0085CC"/>
<path d="M188.135 341.569H135.158V343.807H188.135V341.569Z" fill="white"/>
<path d="M176.791 341.569H135.158V343.807H176.791V341.569Z" fill="#0085CC"/>
<path d="M188.135 345.854H135.158V348.093H188.135V345.854Z" fill="white"/>
<path d="M165.769 345.854H135.158V348.093H165.769V345.854Z" fill="#0085CC"/>
<path d="M229.692 339.567C229.508 342.047 228.714 344.444 227.383 346.545L223.5 344.301C224.428 342.878 225.008 341.256 225.194 339.567H229.692Z" fill="#455A64"/>
<path d="M229.722 338.397C229.722 338.564 229.722 338.725 229.722 338.901H225.235C225.235 338.74 225.235 338.579 225.235 338.397C225.236 336.608 224.792 334.847 223.942 333.272C223.093 331.697 221.865 330.359 220.369 329.377L222.618 325.489C224.794 326.868 226.586 328.774 227.828 331.031C229.07 333.287 229.722 335.821 229.722 338.397Z" fill="#A6A6A6"/>
<path d="M222.053 325.137L219.815 329.024C218.277 328.142 216.544 327.656 214.772 327.607V323.125C217.33 323.171 219.835 323.863 222.053 325.137Z" fill="#455A64"/>
<path d="M214.117 323.125V327.607C212.295 327.663 210.517 328.181 208.949 329.111C207.381 330.041 206.075 331.354 205.152 332.927L201.265 330.688C202.581 328.433 204.454 326.554 206.704 325.23C208.955 323.906 211.507 323.181 214.117 323.125Z" fill="#0085CC"/>
<path d="M204.824 333.521C204.083 334.975 203.687 336.579 203.665 338.211H199.182C199.202 335.792 199.804 333.414 200.937 331.278L204.824 333.521Z" fill="#A6A6A6"/>
<path d="M208.44 347.367L206.196 351.254C204.11 349.918 202.382 348.093 201.161 345.938C199.94 343.783 199.262 341.362 199.188 338.886H203.67C203.744 340.575 204.215 342.222 205.044 343.695C205.872 345.169 207.035 346.426 208.44 347.367Z" fill="#455A64"/>
<path d="M227.005 347.11C224.815 350.266 221.517 352.481 217.767 353.315C214.017 354.148 210.091 353.539 206.771 351.607L209.014 347.725C211.308 349.069 214.017 349.519 216.622 348.99C219.227 348.461 221.545 346.989 223.132 344.856L227.005 347.11Z" fill="#DBDBDB"/>
<path d="M222.447 338.886C222.445 340.277 222.035 341.637 221.266 342.796C220.498 343.955 219.406 344.863 218.126 345.406L215.357 338.886H222.447Z" fill="#0085CC"/>
<path d="M214.46 338.402L217.223 344.922C217.006 345.007 216.789 345.093 216.572 345.159C215.891 345.369 215.183 345.476 214.47 345.476C213.757 345.475 213.049 345.368 212.367 345.159C210.915 344.721 209.642 343.827 208.738 342.61C207.833 341.393 207.344 339.916 207.344 338.4C207.344 336.883 207.833 335.407 208.738 334.189C209.642 332.972 210.915 332.078 212.367 331.641C213.737 331.217 215.203 331.217 216.572 331.641C217.669 331.979 218.666 332.58 219.478 333.391C220.29 334.202 220.891 335.199 221.231 336.295C221.44 336.976 221.547 337.684 221.549 338.397L214.46 338.402Z" fill="#0085CC"/>
<path d="M214.46 338.402L217.223 344.922C217.006 345.007 216.789 345.093 216.573 345.159C215.892 345.369 215.183 345.476 214.47 345.476C212.96 345.479 211.488 344.997 210.272 344.101C209.056 343.205 208.159 341.943 207.714 340.5C207.284 339.131 207.284 337.663 207.714 336.295C208.16 334.852 209.057 333.591 210.273 332.696C211.489 331.802 212.96 331.32 214.47 331.323C216.342 331.323 218.138 332.067 219.461 333.391C220.785 334.714 221.529 336.51 221.529 338.382L214.46 338.402Z" fill="#DBDBDB"/>
<path d="M214.46 338.402L209.846 343.767C208.956 342.992 208.274 342.007 207.863 340.901C207.452 339.795 207.325 338.604 207.493 337.436C207.661 336.268 208.119 335.161 208.826 334.216C209.532 333.271 210.464 332.518 211.536 332.026C212.609 331.534 213.787 331.319 214.964 331.4C216.141 331.481 217.279 331.855 218.274 332.49C219.269 333.124 220.089 333.997 220.66 335.03C221.23 336.063 221.532 337.222 221.539 338.402H214.46Z" fill="#A6A6A6"/>
<path d="M234.734 355.283H224.867L212.645 343.061L212.826 342.885L224.973 355.031H234.734V355.283Z" fill="#263238"/>
<path d="M213.426 342.285H212.05V343.661H213.426V342.285Z" fill="#263238"/>
<path d="M234.734 345.829H223.616L218.337 340.55L218.514 340.369L223.717 345.577H234.734V345.829Z" fill="#263238"/>
<path d="M219.109 339.774H217.737V341.15H219.109V339.774Z" fill="#263238"/>
<path d="M234.734 336.471H217.919V336.723H234.734V336.471Z" fill="#263238"/>
<path d="M218.428 335.911H217.052V337.288H218.428V335.911Z" fill="#263238"/>
<path d="M252.29 335.221H239.065V336.355H252.29V335.221Z" fill="#DBDBDB"/>
<path d="M256.934 337.59H239.065V338.725H256.934V337.59Z" fill="#DBDBDB"/>
<path d="M248.549 339.965H239.065V341.1H248.549V339.965Z" fill="#DBDBDB"/>
<path d="M236.115 335.221H233.357V337.979H236.115V335.221Z" fill="#0085CC"/>
<path d="M254.786 344.402H239.065V345.537H254.786V344.402Z" fill="#DBDBDB"/>
<path d="M251.499 346.772H239.065V347.906H251.499V346.772Z" fill="#DBDBDB"/>
<path d="M256.934 349.147H239.065V350.281H256.934V349.147Z" fill="#DBDBDB"/>
<path d="M236.115 344.402H233.357V347.16H236.115V344.402Z" fill="#A6A6A6"/>
<path d="M254.786 353.584H239.065V354.718H254.786V353.584Z" fill="#DBDBDB"/>
<path d="M251.499 355.954H239.065V357.088H251.499V355.954Z" fill="#DBDBDB"/>
<path d="M256.934 358.328H239.065V359.463H256.934V358.328Z" fill="#DBDBDB"/>
<path d="M236.115 353.584H233.357V356.342H236.115V353.584Z" fill="#C7C7C7"/>
<path d="M196.908 413.226L197.887 419.11L204.537 455.005H205.606L200.771 419.11L200.06 413.226H196.908Z" fill="#DBDBDB"/>
<path d="M200.06 413.226H196.908L197.887 419.11H200.771L200.06 413.226Z" fill="#A6A6A6"/>
<path d="M176.034 455.005H177.108L183.754 419.11L184.737 413.226H181.586L180.87 419.11L176.034 455.005Z" fill="#DBDBDB"/>
<path d="M181.586 413.226L180.87 419.11H183.754L184.737 413.226H181.586Z" fill="#A6A6A6"/>
<path d="M156.103 455.005H157.172L163.817 419.11L164.801 413.226H161.649L160.933 419.11L156.103 455.005Z" fill="#DBDBDB"/>
<path d="M160.933 419.11H163.817L164.801 413.226H161.649L160.933 419.11Z" fill="#A6A6A6"/>
<path d="M157.797 415.994H206.498V410.862H188.271L182.14 375.214H159.658L157.797 415.994Z" fill="#DBDBDB"/>
<path d="M157.797 415.994H160.454L162.184 375.214H159.658L157.797 415.994Z" fill="#A6A6A6"/>
<path d="M268.47 442.99C270.235 442.697 272.378 443.015 273.699 444.295C273.749 444.346 273.699 444.416 273.618 444.396C271.951 443.818 270.227 443.421 268.475 443.211C268.446 443.212 268.417 443.201 268.396 443.181C268.375 443.16 268.363 443.132 268.362 443.103C268.361 443.074 268.372 443.045 268.393 443.024C268.413 443.003 268.441 442.99 268.47 442.99Z" fill="#263238"/>
<path d="M267.185 443.726C268.949 443.433 271.097 443.751 272.413 445.032C272.464 445.082 272.413 445.153 272.333 445.132C270.665 444.556 268.941 444.159 267.19 443.948C267.175 443.948 267.161 443.945 267.147 443.94C267.133 443.935 267.121 443.927 267.11 443.917C267.1 443.907 267.091 443.895 267.086 443.881C267.08 443.868 267.077 443.854 267.076 443.839C267.076 443.825 267.078 443.81 267.084 443.796C267.089 443.783 267.097 443.77 267.107 443.76C267.117 443.749 267.129 443.741 267.142 443.735C267.156 443.729 267.17 443.726 267.185 443.726Z" fill="#263238"/>
<path d="M265.899 444.462C267.663 444.174 269.811 444.487 271.127 445.768C271.178 445.818 271.127 445.889 271.052 445.874C269.383 445.292 267.658 444.892 265.904 444.679C265.879 444.674 265.856 444.661 265.84 444.641C265.824 444.622 265.814 444.598 265.814 444.572C265.813 444.547 265.821 444.522 265.837 444.502C265.852 444.482 265.874 444.468 265.899 444.462Z" fill="#263238"/>
<path d="M258.235 452.443C259.168 452.731 285.664 452.04 286.657 451.374C287.04 451.127 287.161 447.26 287.161 442.586V442.435L270.058 442.692V442.979C270.058 442.979 260.035 447.779 259.021 448.627C258.008 449.474 257.302 452.156 258.235 452.443Z" fill="#37474F"/>
<path d="M287.201 442.435V442.586C287.201 447.26 287.06 451.127 286.697 451.374C286.334 451.622 280.506 451.985 274.299 452.206C266.872 452.469 258.784 452.6 258.275 452.443C257.342 452.156 258.094 449.474 259.097 448.627C260.1 447.779 270.134 442.979 270.134 442.979V442.692L275.837 442.606L287.201 442.435Z" fill="#37474F"/>
<path d="M258.507 451.405C262.974 451.178 281 450.694 285.427 450.81C285.462 450.81 285.462 450.81 285.427 450.81C281.01 451.132 262.979 451.475 258.512 451.455C258.416 451.48 258.416 451.41 258.507 451.405Z" fill="#263238"/>
<path d="M275.781 442.606C275.363 445.47 274.728 449.69 274.269 452.186C266.842 452.448 258.754 452.58 258.245 452.423C257.312 452.136 258.064 449.453 259.067 448.606C260.07 447.759 270.104 442.959 270.104 442.959V442.672L275.781 442.606Z" fill="#263238"/>
<path d="M289.425 442.662L269.448 442.843C269.448 442.843 264.119 372.164 268.858 353.649H283.193C283.193 353.649 287.045 361.51 284.842 370.359L289.425 442.662Z" fill="#455A64"/>
<path d="M288.043 439.324C287.52 439.256 286.993 439.216 286.465 439.203C285.88 439.163 285.296 439.122 284.706 439.097C283.581 439.052 282.452 439.032 281.322 439.027C279.048 439.027 276.785 439.027 274.495 439.102C273.2 439.142 271.904 439.193 270.613 439.263C270.602 439.263 270.592 439.268 270.585 439.275C270.577 439.283 270.573 439.293 270.573 439.304C270.573 439.315 270.577 439.325 270.585 439.332C270.592 439.34 270.602 439.344 270.613 439.344C272.872 439.425 275.151 439.455 277.385 439.5C279.618 439.546 281.922 439.586 284.156 439.541C284.801 439.541 285.447 439.541 286.097 439.49C286.748 439.44 287.403 439.49 288.033 439.4C288.074 439.395 288.089 439.334 288.043 439.324Z" fill="#263238"/>
<path d="M270.931 422.09C270.704 416.927 270.543 411.764 270.396 406.596C270.114 396.27 270.04 385.937 270.175 375.597C270.25 369.799 270.401 364.001 270.578 358.207C270.578 358.142 270.477 358.147 270.472 358.207C269.922 368.579 269.716 378.976 269.706 389.367C269.696 399.759 269.907 410.04 270.417 420.361C270.704 426.154 271.057 431.958 271.601 437.726C271.601 437.776 271.682 437.776 271.682 437.726C271.45 432.517 271.153 427.304 270.931 422.09Z" fill="#263238"/>
<path d="M252.467 445.238C254.232 444.946 256.379 445.264 257.695 446.544C257.746 446.595 257.695 446.665 257.615 446.645C255.948 446.067 254.224 445.669 252.472 445.46C252.442 445.461 252.414 445.45 252.393 445.429C252.371 445.409 252.359 445.381 252.358 445.352C252.358 445.322 252.369 445.294 252.389 445.273C252.409 445.251 252.437 445.239 252.467 445.238Z" fill="#263238"/>
<path d="M251.181 445.974C252.946 445.687 255.094 446 256.41 447.28C256.46 447.331 256.41 447.401 256.334 447.381C254.665 446.804 252.939 446.405 251.186 446.191C251.161 446.187 251.139 446.173 251.122 446.154C251.106 446.135 251.097 446.11 251.096 446.085C251.095 446.06 251.103 446.035 251.119 446.015C251.134 445.995 251.156 445.98 251.181 445.974Z" fill="#263238"/>
<path d="M249.89 446.695C251.655 446.408 253.798 446.721 255.114 448.001C255.164 448.052 255.114 448.127 255.038 448.107C253.369 447.535 251.643 447.142 249.89 446.938C249.858 446.938 249.827 446.925 249.805 446.902C249.782 446.879 249.769 446.849 249.769 446.816C249.769 446.784 249.782 446.754 249.805 446.731C249.827 446.708 249.858 446.695 249.89 446.695Z" fill="#263238"/>
<path d="M242.231 454.692C243.164 454.98 269.66 454.289 270.653 453.623C271.037 453.376 271.158 449.509 271.158 444.835V444.679L254.055 444.931V445.218C254.055 445.218 244.031 450.018 243.018 450.865C242.005 451.712 241.319 454.405 242.231 454.692Z" fill="#37474F"/>
<path d="M242.504 453.654C246.971 453.432 264.996 452.943 269.423 453.059C269.459 453.059 269.459 453.084 269.423 453.084C265.006 453.406 246.976 453.749 242.509 453.729C242.413 453.754 242.413 453.659 242.504 453.654Z" fill="#263238"/>
<path d="M274.46 372.023C274.46 372.023 273.053 400.692 273.003 401.372C273.003 401.635 272.348 445.874 272.348 445.874L252.376 446.055C252.376 446.055 255.109 404.584 255.401 400.535C255.437 400.067 256.566 372.184 261.305 353.67H282.775C282.775 353.67 282.588 363.365 278.181 370.379C276.911 370.856 275.669 371.405 274.46 372.023Z" fill="#455A64"/>
<path d="M272.907 372.577C273.966 372.002 275.045 371.483 276.154 371.009C277.264 370.535 278.393 370.107 279.497 369.618C279.538 369.618 279.573 369.658 279.533 369.678C278.449 370.238 277.385 370.838 276.285 371.367C275.208 371.886 274.096 372.331 272.958 372.698C272.942 372.705 272.924 372.705 272.908 372.698C272.891 372.692 272.879 372.679 272.872 372.663C272.865 372.647 272.865 372.629 272.872 372.613C272.879 372.597 272.891 372.584 272.907 372.577Z" fill="#263238"/>
<path d="M274.379 371.992C274.379 371.952 274.45 371.962 274.445 371.992C273.724 377.367 272.751 441.245 272.585 442.773C272.585 442.797 272.575 442.82 272.558 442.837C272.541 442.854 272.518 442.863 272.494 442.863C272.47 442.863 272.447 442.854 272.43 442.837C272.413 442.82 272.403 442.797 272.403 442.773C272.368 440.07 272.494 389.866 274.379 371.992Z" fill="#263238"/>
<path d="M264.512 355.701C263.963 358.465 263.58 361.248 263.166 364.051C262.753 366.855 262.354 369.638 261.981 372.436C261.245 377.942 260.59 383.456 260.015 388.979C258.858 400.156 258.018 411.359 257.494 422.589C257.195 428.902 257.013 435.221 256.949 441.548C256.949 441.598 257.03 441.593 257.03 441.548C257.413 430.314 257.958 419.085 258.81 407.877C259.662 396.668 260.781 385.52 262.148 374.387C262.527 371.302 262.924 368.219 263.338 365.14C263.766 362.004 264.27 358.878 264.633 355.732C264.618 355.656 264.512 355.626 264.512 355.701Z" fill="#263238"/>
<path d="M271.263 443.116C270.74 443.046 270.213 443.004 269.685 442.99C269.1 442.949 268.516 442.909 267.931 442.884C266.801 442.838 265.677 442.818 264.547 442.818C262.268 442.818 260.01 442.818 257.715 442.894C256.425 442.934 255.129 442.985 253.833 443.055C253.783 443.055 253.788 443.131 253.833 443.131C256.087 443.211 258.346 443.247 260.605 443.287C262.863 443.327 265.117 443.373 267.371 443.332C268.021 443.332 268.667 443.332 269.312 443.277C269.958 443.221 270.623 443.277 271.253 443.186C271.294 443.166 271.309 443.121 271.263 443.116Z" fill="#263238"/>
<path d="M256.369 348.683C258.462 347.629 266.63 343.802 266.958 343.212C267.286 342.622 270.432 331.227 271.274 329.125C272.116 327.022 274.612 328.182 274.596 331.5C274.581 334.817 274.808 346.303 274.329 348.138C273.85 349.974 264.891 357.214 263.237 358.767C261.991 360.002 255.2 349.268 256.369 348.683Z" fill="#AD6359"/>
<path d="M264.906 357.229C263.76 358.374 262.541 359.441 261.255 360.426C260.211 361.162 257.141 363.194 256.213 362.12C255.583 361.389 257.221 359.987 258.396 358.964C259.006 358.429 259.627 357.386 259.258 357.002C258.623 356.332 257.07 357.754 256.112 358.863C254.252 361.006 251.993 364.485 250.173 363.794C249.487 363.532 249.83 362.508 250.465 361.404C249.305 362.836 247.995 364.132 247.218 363.87C247.016 363.803 246.847 363.661 246.747 363.473C246.648 363.285 246.625 363.066 246.684 362.861C246.527 363.012 246.329 363.112 246.116 363.15C245.902 363.187 245.682 363.161 245.484 363.073C244.833 362.735 244.813 361.913 245.075 360.97C244.982 360.992 244.884 360.991 244.791 360.967C244.698 360.944 244.612 360.898 244.541 360.834C242.998 359.634 246.558 353.443 248.181 352.424C251.432 350.476 254.935 348.985 258.593 347.992C261.195 348.935 264.911 357.224 264.906 357.229Z" fill="#D69A92"/>
<path d="M255.643 355.006C254.471 355.615 253.448 356.476 252.648 357.527C251.721 358.772 251.136 360.229 250.354 361.56C250.354 361.596 250.395 361.631 250.41 361.591C250.773 360.93 251.201 360.295 251.584 359.644C251.968 358.994 252.321 358.359 252.739 357.754C253.495 356.642 254.493 355.716 255.658 355.046C255.658 355.046 255.658 355.001 255.643 355.006Z" fill="#263238"/>
<path d="M253.924 353.14C252.655 353.938 251.472 354.866 250.395 355.908C249.25 357.083 248.564 358.601 247.874 360.068C247.46 360.952 247.068 361.843 246.699 362.74C246.699 362.781 246.734 362.811 246.754 362.77C247.445 361.258 248.176 359.745 248.953 358.308C249.667 356.943 250.644 355.731 251.826 354.744C252.507 354.184 253.223 353.67 253.944 353.165C253.954 353.155 253.924 353.13 253.924 353.14Z" fill="#263238"/>
<path d="M251.821 351.718C250.605 352.336 249.51 353.168 248.589 354.174C247.574 355.497 246.727 356.942 246.068 358.475C245.7 359.291 245.362 360.118 245.035 360.955C245.035 360.986 245.08 361.011 245.095 360.955C245.867 359.11 246.758 357.316 247.762 355.586C248.228 354.754 248.818 353.999 249.512 353.347C250.235 352.737 251.008 352.187 251.821 351.703C251.821 351.703 251.826 351.713 251.821 351.718Z" fill="#263238"/>
<path d="M257.786 346.888L267.926 357.088C267.926 357.088 274.067 351.154 274.727 348.159C275.388 345.164 275.408 333.642 274.727 330.174C274.047 326.705 271.808 325.565 270.306 330.345C268.803 335.125 266.978 342.612 266.837 342.89C266.695 343.167 257.786 346.888 257.786 346.888Z" fill="#0085CC"/>
<path d="M269.69 353.922C269.054 353.201 268.381 352.515 267.674 351.864C266.988 351.189 266.282 350.543 265.571 349.893C264.149 348.597 262.687 347.337 261.189 346.127C261.144 346.086 261.073 346.127 261.119 346.192C262.465 347.589 263.862 348.95 265.284 350.266C265.99 350.917 266.7 351.562 267.432 352.187C268.132 352.829 268.866 353.433 269.63 353.997C269.68 354.012 269.726 353.947 269.69 353.922Z" fill="#263238"/>
<path d="M268.491 332.286C269.65 332.377 272.131 330.269 273.129 328.495C273.096 327.483 273.012 326.473 272.877 325.469C272.791 324.501 272.721 323.422 272.731 322.444C272.731 322.237 272.035 322.605 272.035 322.605L270.754 322.908L266.509 323.916C266.854 325.157 267.046 326.436 267.079 327.723C267.075 327.859 267.059 327.993 267.033 328.126C267.033 328.126 267.033 328.167 267.033 328.197C266.892 328.943 266.68 332.145 268.491 332.286Z" fill="#F0968C"/>
<path d="M267.033 328.106C267.033 328.106 267.033 328.147 267.033 328.177C267.246 328.205 267.46 328.217 267.674 328.212C271.854 328.152 272.418 322.837 272.418 322.837L270.764 322.898L266.519 323.906C266.864 325.147 267.056 326.426 267.089 327.713C267.081 327.845 267.062 327.977 267.033 328.106Z" fill="#263238"/>
<path d="M272.902 314.039C273.82 316.152 273.406 322.61 271.99 324.194C269.973 326.493 266.297 327.108 264.25 324.592C262.268 322.157 262.984 313.757 264.578 312.279C266.922 310.101 271.571 310.918 272.902 314.039Z" fill="#F0968C"/>
<path d="M263.307 315.809C263.307 315.809 262.803 318.229 262.299 320.634L263.116 320.528L262.929 321.617C263.222 321.683 263.526 321.687 263.82 321.628C264.115 321.569 264.394 321.448 264.638 321.274L263.307 315.809Z" fill="#D69A92"/>
<path d="M264.185 318.436C264.185 318.436 264.22 318.436 264.215 318.476C264.154 318.91 264.159 319.414 264.537 319.6C264.058 319.505 264.058 318.834 264.185 318.436Z" fill="#263238"/>
<path d="M264.623 318.022C265.324 318.022 265.228 319.449 264.578 319.429C263.927 319.409 264.033 318.007 264.623 318.022Z" fill="#263238"/>
<path d="M265.218 317.518C265.032 317.457 264.865 317.367 264.714 317.291C264.514 317.236 264.337 317.118 264.21 316.953C264.181 316.894 264.173 316.828 264.187 316.764C264.2 316.7 264.235 316.642 264.285 316.6C264.396 316.529 264.523 316.488 264.654 316.483C264.786 316.477 264.916 316.508 265.032 316.57C265.284 316.66 265.494 316.839 265.622 317.074C265.653 317.132 265.666 317.198 265.658 317.264C265.65 317.329 265.622 317.391 265.577 317.439C265.533 317.488 265.475 317.522 265.41 317.536C265.346 317.55 265.279 317.544 265.218 317.518Z" fill="#263238"/>
<path d="M264.759 321.194C264.577 321.407 264.339 321.567 264.073 321.656C263.806 321.744 263.521 321.759 263.247 321.698C263.216 321.698 263.201 321.658 263.211 321.658C263.755 321.647 264.283 321.471 264.724 321.153C264.774 321.148 264.79 321.148 264.759 321.194Z" fill="#263238"/>
<path d="M263.791 313.742C262.329 313.303 261.311 310.076 261.82 308.881C262.329 307.686 263.529 309.572 263.529 309.572C263.529 309.572 263.65 308.442 264.164 308.316C264.679 308.19 265.637 309.743 265.637 309.743C265.637 309.743 270.548 310.056 271.596 310.434C272.645 310.812 272.963 312.224 272.963 312.224C273.4 312.418 273.79 312.705 274.104 313.066C274.419 313.426 274.65 313.852 274.783 314.311C275.287 315.945 273.664 322.081 272.65 322.913C271.637 323.745 268.828 319.076 268.828 319.076C268.828 319.076 268.072 319.177 267.759 317.664C267.301 315.421 267.175 313.994 266.06 313.767C265.307 313.682 264.547 313.674 263.791 313.742Z" fill="#263238"/>
<path d="M268.596 319.343C268.596 319.343 269.837 317.165 270.815 317.589C271.793 318.012 270.991 321.078 269.937 321.587C269.807 321.662 269.663 321.709 269.514 321.727C269.365 321.744 269.213 321.731 269.069 321.689C268.925 321.647 268.791 321.576 268.675 321.48C268.559 321.384 268.464 321.266 268.395 321.133L268.596 319.343Z" fill="#D69A92"/>
<path d="M270.563 318.461C270.563 318.461 270.588 318.461 270.563 318.491C270.228 318.698 269.94 318.974 269.719 319.3C269.497 319.625 269.347 319.994 269.277 320.382C269.314 320.301 269.368 320.228 269.436 320.17C269.503 320.112 269.583 320.069 269.669 320.044C269.755 320.02 269.845 320.014 269.933 320.028C270.021 320.042 270.105 320.075 270.18 320.125V320.17C270.042 320.139 269.897 320.152 269.767 320.207C269.637 320.262 269.527 320.357 269.453 320.478C269.328 320.679 269.227 320.894 269.151 321.118C269.121 321.194 268.995 321.168 269.01 321.083C268.894 320.094 269.524 318.658 270.563 318.461Z" fill="#263238"/>
<path d="M268.218 334.409C264.356 341.841 257.524 350.191 250.863 353.307C246.805 355.197 243.805 354.179 242.6 352.671C240.85 350.508 244.258 336.607 246.885 332.417C247.742 331.061 260.438 334.621 259.586 336.108C258.734 337.595 262.611 333.143 266.801 329.8C271.102 326.347 270.563 329.921 268.218 334.409Z" fill="#D69A92"/>
<path d="M250.949 325.005C252.462 323.876 254.141 322.454 256.057 321.905C257.973 321.355 260.327 323.387 260.549 324.103C260.771 324.819 261.432 329.543 259.541 330.128C257.65 330.713 257.726 326.906 257.524 326.533C257.322 326.16 257.101 325.676 256.753 325.822C256.405 325.968 251.025 330.864 251.025 330.864L250.949 325.005Z" fill="#D69A92"/>
<path d="M251.151 325.232C251.257 325.202 255.744 321.617 257.665 321.068C259.586 320.518 261.936 322.55 262.158 323.271C262.38 323.992 263.04 328.706 261.149 329.291C259.258 329.876 259.334 326.069 259.132 325.696C258.931 325.323 258.714 324.839 258.366 324.99C258.018 325.142 252.638 330.032 252.638 330.032L251.151 325.232Z" fill="#F0968C"/>
<path d="M260.413 329.251C260.109 328.977 259.88 328.63 259.748 328.242C259.582 327.848 259.48 327.429 259.445 327.002C259.445 326.627 259.415 326.253 259.354 325.883C259.242 325.531 259.045 325.212 258.78 324.955C258.548 324.733 258.275 324.91 258.084 325.071C257.769 325.313 257.471 325.576 257.191 325.858L256.274 326.745C255.948 327.041 255.641 327.357 255.356 327.693C255.356 327.718 255.356 327.758 255.396 327.738C255.686 327.51 255.964 327.265 256.228 327.007C256.537 326.725 256.85 326.447 257.166 326.175C257.458 325.918 257.741 325.646 258.038 325.394C258.144 325.303 258.346 325.101 258.497 325.086C258.648 325.071 258.835 325.414 258.901 325.52C259.087 325.837 259.175 326.202 259.153 326.568C259.155 326.94 259.195 327.31 259.274 327.673C259.344 328.015 259.473 328.343 259.657 328.641C259.865 328.894 260.102 329.122 260.363 329.321C260.398 329.337 260.448 329.276 260.413 329.251Z" fill="#263238"/>
<path d="M246.825 332.564C246.825 332.564 249.099 327.073 251.252 324.365C253.152 321.965 255.598 320.049 257.655 319.394C259.712 318.738 264.815 324.083 263.121 324.94C261.336 325.827 258.956 323.105 258.22 323.78C257.398 324.537 256.435 325.797 256.823 326.856C257.211 327.915 258.84 329.548 260.579 328.953C262.319 328.358 262.137 325.989 263.68 325.202C265.223 324.416 265.621 327.163 265.001 329.236C264.307 331.275 263.048 333.076 261.371 334.429C260.015 335.473 255.89 338.967 255.89 338.967L246.825 332.564Z" fill="#D69A92"/>
<path d="M262.45 325.111C261.778 325.137 261.111 324.982 260.519 324.663C259.949 324.347 259.359 324.067 258.754 323.826C258.695 323.804 258.631 323.796 258.569 323.802C258.506 323.808 258.445 323.828 258.391 323.861C258.267 323.946 258.152 324.044 258.048 324.153C257.826 324.385 257.624 324.634 257.443 324.9C257.1 325.404 256.768 326.044 256.939 326.594C257.128 327.19 257.477 327.724 257.947 328.137C258.406 328.57 258.99 328.847 259.616 328.928C259.928 328.947 260.241 328.909 260.539 328.817C260.839 328.706 261.114 328.534 261.346 328.313C261.813 327.853 262.173 327.295 262.4 326.679C262.236 327.334 261.92 327.94 261.477 328.449C261.235 328.698 260.943 328.892 260.62 329.019C260.298 329.141 259.956 329.201 259.611 329.195C258.911 329.141 258.25 328.851 257.736 328.374C257.195 327.927 256.79 327.338 256.566 326.674C256.472 326.314 256.502 325.932 256.652 325.59C256.782 325.268 256.952 324.964 257.156 324.683C257.352 324.404 257.571 324.143 257.811 323.901C257.939 323.775 258.079 323.662 258.23 323.563C258.321 323.518 258.421 323.49 258.523 323.483C258.625 323.477 258.728 323.49 258.825 323.523C259.145 323.644 259.453 323.798 259.742 323.982L260.6 324.486C261.154 324.847 261.79 325.062 262.45 325.111Z" fill="#263238"/>
<path d="M245.287 333.053L259.863 335.77L259.662 336.229C259.662 336.229 265.637 330.032 268.233 328.081C271.258 325.802 271.107 329.044 269.68 332.382C268.253 335.72 259.596 350.826 251.594 354.94C248.801 356.372 242.801 354.501 242.135 352.374C240.925 348.562 245.287 333.053 245.287 333.053Z" fill="#0085CC"/>
<path d="M259.697 336.148C259.035 336.659 258.407 337.211 257.816 337.802C257.04 338.533 256.279 339.274 255.517 340.021C253.995 341.503 252.482 343.004 250.979 344.523C250.793 344.715 250.611 344.911 250.43 345.103C250.112 345.244 249.81 345.411 249.502 345.567C249.194 345.723 248.766 345.95 248.388 346.132C248.381 346.137 248.376 346.145 248.374 346.155C248.372 346.164 248.373 346.173 248.377 346.181C248.381 346.19 248.388 346.196 248.396 346.2C248.405 346.204 248.414 346.205 248.423 346.202C248.796 346.041 249.174 345.885 249.537 345.698C249.746 345.597 249.952 345.491 250.158 345.38C249.593 345.965 249.028 346.55 248.473 347.145C248.443 347.18 248.473 347.231 248.534 347.201C251.655 344.372 254.68 341.422 257.61 338.392C258.028 337.958 259.359 336.673 259.722 336.194C259.763 336.174 259.732 336.123 259.697 336.148Z" fill="#263238"/>
<path d="M257.252 338.15C256.333 337.869 255.401 337.635 254.458 337.449C253.521 337.232 252.578 337.046 251.635 336.869C249.744 336.506 247.838 336.199 245.932 335.947C245.867 335.947 245.842 336.027 245.932 336.043C247.808 336.547 249.709 336.955 251.61 337.333C252.553 337.52 253.495 337.701 254.448 337.837C255.38 338.019 256.321 338.15 257.267 338.231C257.297 338.246 257.297 338.165 257.252 338.15Z" fill="#263238"/>
<path d="M268.173 335.357C265.979 338.806 263.746 342.224 261.336 345.527C260.63 346.49 259.944 347.468 259.228 348.431C259.228 348.471 259.253 348.527 259.289 348.486C261.911 345.319 264.296 341.962 266.423 338.443C267.043 337.434 267.643 336.426 268.203 335.377L268.173 335.357Z" fill="#263238"/>
<path d="M286.405 362.549C286.339 362.619 258.835 363.149 258.578 362.871C258.22 362.478 262.717 334.903 267.089 328.893C268.183 327.38 272.085 326.372 273.709 327.884C278.418 332.306 279.406 336.017 280.632 339.053C281.826 342.33 282.826 345.676 283.627 349.071C285.27 355.555 286.627 362.286 286.405 362.549Z" fill="#0085CC"/>
<path d="M265.062 333.643C264.255 335.745 263.549 337.893 262.899 340.051C262.248 342.209 261.669 344.347 261.24 346.54C261.119 347.16 261.003 347.78 260.897 348.401C260.791 349.021 260.706 349.691 260.544 350.322C260.544 350.372 260.61 350.387 260.62 350.322C260.816 349.221 261.079 348.133 261.406 347.064C261.694 345.965 261.996 344.871 262.274 343.767C262.808 341.599 263.398 339.446 264.023 337.303C264.386 336.078 264.769 334.863 265.148 333.643C265.163 333.607 265.082 333.592 265.062 333.643Z" fill="#263238"/>
<path d="M139.893 421.243L140.957 427.647L148.192 466.707H149.357L144.098 427.647L143.321 421.243H139.893Z" fill="#DBDBDB"/>
<path d="M143.321 421.243H139.893L140.957 427.647H144.098L143.321 421.243Z" fill="#A6A6A6"/>
<path d="M117.178 466.707H118.343L125.579 427.647L126.642 421.243H123.214L122.437 427.647L117.178 466.707Z" fill="#DBDBDB"/>
<path d="M123.214 421.243L122.438 427.647H125.579L126.643 421.243H123.214Z" fill="#A6A6A6"/>
<path d="M95.4875 466.707H96.6523L103.883 427.647L104.951 421.243H101.523L100.746 427.647L95.4875 466.707Z" fill="#DBDBDB"/>
<path d="M100.746 427.647H103.882L104.951 421.243H101.523L100.746 427.647Z" fill="#A6A6A6"/>
<path d="M97.333 424.253H150.33V418.667H130.49L123.824 379.878H99.3549L97.333 424.253Z" fill="#DBDBDB"/>
<path d="M97.333 424.253H100.222L102.108 379.878H99.3549L97.333 424.253Z" fill="#A6A6A6"/>
<path d="M206.998 462.21C206.014 462.548 177.92 462.643 176.846 461.968C176.433 461.716 176.181 457.622 176.019 452.67L161.543 435.653L183.083 435.532L194.135 452.554C194.135 452.554 204.905 457.329 206.009 458.196C207.114 459.064 207.976 461.882 206.998 462.21Z" fill="#F7A9A0"/>
<path d="M206.998 462.21C206.015 462.548 177.92 462.643 176.846 461.968C176.478 461.746 176.241 458.509 176.08 454.329C178.777 454.798 201.542 458.711 202.621 458.111C203.7 457.511 200.272 455.348 200.272 455.348H200.312C202.934 456.558 205.5 457.793 206.009 458.191C207.099 459.059 207.976 461.882 206.998 462.21Z" fill="#263238"/>
<path d="M191.998 457.339C191.998 457.339 194.887 453.986 200.272 455.348L191.998 457.339Z" fill="#263238"/>
<path d="M196.011 452.363L185.065 453.437L174.26 454.501C174.26 454.501 152.579 423.678 151.263 422.332C148.238 419.307 123.89 414.396 117.32 407.867C110.362 400.954 113.397 392.211 113.397 392.211H131.548C131.548 392.211 133.848 398.04 134.816 398.342C145.298 401.599 159.26 405.693 163.797 409.697C171.935 416.892 196.011 452.363 196.011 452.363Z" fill="#263238"/>
<path d="M192.603 449.025C189.522 449.312 190.399 449.186 187.329 449.529C185.816 449.685 175.939 450.739 174.562 451.138C174.527 451.138 174.562 451.198 174.562 451.198C175.994 451.269 185.856 450.043 187.359 449.857C190.429 449.469 189.542 449.549 192.608 449.131C192.622 449.13 192.635 449.124 192.644 449.113C192.654 449.103 192.659 449.089 192.658 449.075C192.657 449.061 192.651 449.048 192.641 449.039C192.63 449.029 192.617 449.024 192.603 449.025Z" fill="#455A64"/>
<path d="M174.839 449.282C171.28 444.416 167.639 439.39 163.999 434.579L158.538 427.364C157.624 426.157 156.71 424.956 155.796 423.759C155.026 422.68 154.157 421.675 153.199 420.759C152.201 419.923 151.083 419.243 149.881 418.742C148.616 418.178 147.315 417.694 146.004 417.23C143.281 416.292 140.508 415.531 137.75 414.709C132.632 413.196 127.449 411.537 123.042 408.451C119.079 405.673 115.772 401.549 114.829 396.714C114.712 396.1 114.648 395.478 114.637 394.853C114.637 394.842 114.633 394.832 114.626 394.825C114.618 394.817 114.608 394.813 114.597 394.813C114.586 394.813 114.576 394.817 114.568 394.825C114.561 394.832 114.557 394.842 114.557 394.853C114.656 397.201 115.265 399.5 116.342 401.589C117.472 403.728 118.988 405.639 120.814 407.226C124.747 410.71 129.723 412.722 134.674 414.285C137.417 415.147 140.221 415.894 142.948 416.731C144.345 417.159 145.727 417.608 147.093 418.112C148.403 418.565 149.679 419.113 150.91 419.751C152.108 420.399 153.174 421.264 154.056 422.302C154.989 423.396 155.816 424.586 156.678 425.736C158.493 428.146 160.313 430.552 162.139 432.956C165.804 437.801 169.444 442.672 173.165 447.477C173.629 448.077 174.098 448.667 174.562 449.262C174.688 449.453 174.991 449.489 174.839 449.282Z" fill="#455A64"/>
<path d="M160.676 468.044C159.693 468.361 131.599 467.998 130.54 467.302C130.131 467.05 134.432 439.687 134.432 439.687L153.229 439.874L147.98 458.181C147.98 458.181 158.669 463.128 159.753 464.015C160.838 464.902 161.654 467.731 160.676 468.044Z" fill="#DD6A57"/>
<path d="M160.676 468.044C159.693 468.361 131.599 467.998 130.54 467.302C130.409 467.222 130.767 464.307 131.317 460.4C132.461 452.242 134.427 439.687 134.427 439.687L153.224 439.874L147.975 458.181C147.975 458.181 151.298 459.719 154.424 461.232C156.905 462.432 159.26 463.617 159.739 464.01C160.833 464.897 161.655 467.731 160.676 468.044Z" fill="#F7A9A0"/>
<path d="M160.676 468.044C159.693 468.361 131.599 467.998 130.54 467.302C130.409 467.222 130.767 464.307 131.317 460.4C134.09 460.874 140.715 461.998 146.523 462.88L147.199 462.981C152.14 463.717 156.335 464.247 156.779 463.99C157.893 463.364 154.616 461.338 154.434 461.232C156.915 462.432 159.27 463.617 159.749 464.01C160.833 464.897 161.655 467.731 160.676 468.044Z" fill="#263238"/>
<path d="M146.165 463.228C146.165 463.228 149.054 459.87 154.434 461.212L146.165 463.228Z" fill="#263238"/>
<path d="M149.261 457.934L129.547 457.838C129.547 457.838 138.779 422.907 138.335 420.27C138.128 419.05 116.226 420.885 108.36 412.636C101.593 405.537 107.825 392.241 107.825 392.241L128.921 391.737C128.921 391.737 126.975 397.445 125.649 400.984C125.649 400.984 154.575 403.026 157.822 409.369C161.286 416.146 149.261 457.934 149.261 457.934Z" fill="#263238"/>
<path d="M128.377 393.139C128.165 394.258 127.984 395.382 127.726 396.492C127.605 396.996 127.495 397.546 127.338 398.06C127.29 398.286 127.165 398.489 126.985 398.635C126.772 398.754 126.528 398.808 126.284 398.791C126.172 398.807 126.058 398.797 125.95 398.762C125.842 398.727 125.744 398.668 125.663 398.589C125.582 398.51 125.519 398.414 125.481 398.307C125.443 398.201 125.43 398.087 125.442 397.974C125.442 396.935 126.138 393.396 126.179 393.103C126.179 393.048 125.997 393.023 125.982 393.103C125.478 395.327 124.787 398.146 125.21 398.705C125.44 398.985 125.761 399.173 126.118 399.236C126.474 399.299 126.841 399.232 127.152 399.048C127.42 398.83 127.599 398.522 127.656 398.181C127.782 397.677 127.858 397.172 127.948 396.703C128.16 395.534 128.387 394.369 128.538 393.174C128.533 393.158 128.524 393.144 128.511 393.133C128.499 393.122 128.484 393.114 128.468 393.11C128.451 393.107 128.434 393.107 128.418 393.112C128.403 393.117 128.388 393.126 128.377 393.139Z" fill="#455A64"/>
<path d="M125.957 399.199C125.92 399.34 125.892 399.484 125.871 399.628C125.841 399.774 125.81 399.915 125.775 400.056C125.74 400.198 125.71 400.344 125.669 400.49C125.629 400.636 125.609 400.772 125.578 400.919C125.578 400.931 125.581 400.943 125.588 400.953C125.594 400.963 125.604 400.971 125.616 400.975C125.627 400.979 125.639 400.979 125.651 400.975C125.662 400.971 125.672 400.964 125.679 400.954C125.745 400.823 125.804 400.688 125.856 400.551C125.901 400.404 125.947 400.263 125.987 400.117C126.027 399.971 126.057 399.83 126.088 399.683C126.131 399.537 126.156 399.387 126.163 399.235C126.163 399.134 125.992 399.093 125.957 399.199Z" fill="#455A64"/>
<path d="M141.799 419.317C141.395 418.228 140.241 418.077 139.227 418.011C137.775 417.917 136.325 417.794 134.876 417.643C131.982 417.341 129.101 416.924 126.234 416.393C123.508 415.943 120.813 415.318 118.167 414.522C115.722 413.814 113.464 412.576 111.552 410.897C109.76 409.317 108.577 407.161 108.209 404.801C108.073 403.363 108.112 401.914 108.325 400.485C108.491 399.048 108.698 397.621 108.985 396.204C109.131 395.503 109.293 394.813 109.489 394.127C109.486 394.119 109.481 394.113 109.475 394.108C109.468 394.103 109.46 394.101 109.452 394.101C109.443 394.101 109.435 394.103 109.428 394.108C109.422 394.113 109.417 394.119 109.414 394.127C108.683 396.885 108.178 399.698 107.901 402.537C107.776 403.836 107.88 405.147 108.209 406.409C108.537 407.497 109.049 408.52 109.721 409.435C112.706 413.569 117.844 415.067 122.594 416.09C125.437 416.705 128.295 417.21 131.165 417.603C132.562 417.789 133.963 417.956 135.365 418.107C136.767 418.258 138.204 418.319 139.621 418.445C139.923 418.436 140.224 418.49 140.505 418.604C140.785 418.717 141.039 418.888 141.249 419.105C141.402 419.358 141.503 419.638 141.547 419.929C141.591 420.221 141.577 420.518 141.506 420.805C141.401 421.465 141.204 422.115 141.043 422.766C140.881 423.416 140.695 424.152 140.538 424.843C139.812 427.731 139.091 430.623 138.375 433.521C136.948 439.284 135.486 445.047 134.155 450.835C133.989 451.551 133.827 452.267 133.676 452.988C133.673 453.001 133.675 453.015 133.682 453.027C133.689 453.039 133.701 453.048 133.714 453.051C133.727 453.054 133.741 453.052 133.753 453.045C133.765 453.038 133.774 453.027 133.777 453.013C134.614 450.154 135.29 447.25 136.041 444.361C136.792 441.472 137.513 438.583 138.234 435.694C138.955 432.805 139.676 429.951 140.387 427.077C140.723 425.628 141.08 424.181 141.456 422.736C141.703 421.672 142.197 420.381 141.799 419.317Z" fill="#455A64"/>
<path d="M149.473 454.586C147.189 454.445 144.9 454.39 142.611 454.314C140.321 454.238 138.042 454.208 135.758 454.248C134.458 454.248 133.162 454.359 131.861 454.38C131.81 454.38 131.816 454.455 131.861 454.455C134.15 454.455 136.434 454.637 138.723 454.647C141.012 454.657 143.291 454.647 145.575 454.647C146.871 454.647 148.172 454.692 149.473 454.682C149.553 454.672 149.553 454.591 149.473 454.586Z" fill="#455A64"/>
<path d="M117.612 395.322C117.584 395.422 117.545 395.518 117.496 395.609C117.49 395.617 117.487 395.625 117.487 395.635C117.487 395.644 117.49 395.653 117.496 395.66C117.027 397.223 116.437 398.831 115.066 399.819C114.362 400.32 113.577 400.696 112.747 400.934C111.778 401.216 110.77 401.297 109.797 401.564C109.776 401.574 109.758 401.59 109.747 401.611C109.737 401.632 109.733 401.655 109.737 401.678C109.741 401.701 109.753 401.723 109.77 401.738C109.787 401.754 109.809 401.764 109.832 401.766C110.925 401.814 112.019 401.702 113.079 401.433C113.994 401.228 114.853 400.829 115.6 400.263C117.113 399.038 117.542 397.193 117.743 395.332C117.738 395.267 117.632 395.266 117.612 395.322Z" fill="#455A64"/>
<path d="M157.238 408.32C156.325 407.095 154.984 406.435 153.562 405.971C143.982 402.825 132.239 401.433 125.831 400.904C125.78 400.904 125.76 400.974 125.831 400.979C132.758 402.023 150.491 404.398 155.503 407.388C157.651 408.668 158.594 411.739 157.994 416.791C157.515 420.825 156.985 425.161 156.325 429.149C156.325 429.29 156.396 429.28 156.426 429.149C157.187 425.549 157.843 421.611 158.306 417.961C158.68 414.804 159.275 411.053 157.238 408.32Z" fill="#455A64"/>
<path d="M118.177 351.29C115.908 354.169 115.656 358.485 115.656 358.485C115.656 358.485 113.7 363.023 114.647 365.256C114.91 365.89 115.322 366.451 115.849 366.89C116.376 367.329 117.002 367.633 117.673 367.777L117.31 366.527C117.31 366.527 118.318 368.07 121.187 368.397C124.056 368.725 127.6 367.429 129.39 366.234C130.46 365.535 131.329 364.569 131.911 363.431L131.407 365.372C132.297 365.162 133.121 364.736 133.807 364.131C134.492 363.526 135.017 362.76 135.335 361.903C136.585 358.848 131.503 355.288 131.009 354.451C130.515 353.614 129.239 347.221 122.584 349.152C122.579 349.157 119.74 349.313 118.177 351.29Z" fill="#263238"/>
<path d="M116.71 367.732C115.883 367.397 115.178 366.816 114.693 366.068C114.175 365.344 113.915 364.467 113.957 363.577C114.08 362.521 114.394 361.496 114.884 360.552C115.328 359.544 115.842 358.591 116.266 357.587C116.266 357.532 116.205 357.496 116.17 357.542C115.656 358.325 115.186 359.136 114.763 359.972C114.315 360.741 113.96 361.56 113.705 362.412C113.473 363.201 113.473 364.039 113.705 364.828C113.902 365.47 114.256 366.054 114.733 366.527C115.325 367.034 115.979 367.462 116.679 367.802C116.72 367.818 116.78 367.747 116.71 367.732Z" fill="#263238"/>
<path d="M135.547 358.893C134.447 356.614 132.128 355.364 130.58 353.453C129.738 352.414 129.042 351.239 128.009 350.377C128.009 350.352 127.943 350.377 127.968 350.422C128.759 351.255 129.459 352.169 130.056 353.15C130.752 354.08 131.541 354.936 132.41 355.707C133.953 357.159 135.794 358.873 135.758 361.167C135.758 362.231 135.254 363.456 134.246 363.91C134.205 363.91 134.246 363.996 134.281 363.97C134.682 363.751 135.034 363.451 135.315 363.091C135.596 362.73 135.8 362.315 135.915 361.873C136.156 360.868 136.026 359.809 135.547 358.893Z" fill="#263238"/>
<path d="M135.723 359.523C135.692 358.61 135.376 357.728 134.821 357.002C134.222 356.327 133.484 355.789 132.658 355.424C131.74 354.96 130.782 354.537 130.137 353.705C130.137 353.67 130.061 353.705 130.086 353.75C131.125 355.122 132.834 355.616 134.085 356.725C135.516 357.996 135.764 360.063 135.093 361.767C134.661 362.824 133.985 363.763 133.122 364.51C133.122 364.51 133.122 364.545 133.122 364.51C134.619 363.32 135.839 361.535 135.723 359.523Z" fill="#263238"/>
<path d="M129.284 374.09C133.026 377.468 146.357 387.779 151.243 386.589C154.444 385.808 165.607 378.981 166.278 375.224C166.57 373.591 160.989 365.891 159.592 366.986C158.196 368.08 149.402 373.888 148.086 374.115C146.77 374.342 133.283 368.569 128.851 367.692C121.207 366.139 127.273 372.27 129.284 374.09Z" fill="#F7A9A0"/>
<path d="M161.08 363.285C162.703 362.276 164.488 361.031 166.449 360.658C168.411 360.285 170.569 362.523 170.725 363.26C170.881 363.996 171.108 368.755 169.152 369.164C167.196 369.572 167.639 365.791 167.483 365.402C167.327 365.014 167.14 364.51 166.782 364.626C166.424 364.742 160.616 369.164 160.616 369.164L161.08 363.285Z" fill="#F7A9A0"/>
<path d="M161.261 363.527C161.372 363.527 166.167 360.345 168.129 359.972C170.09 359.599 172.248 361.838 172.399 362.579C172.55 363.32 172.782 368.07 170.831 368.478C168.88 368.886 169.318 365.105 169.157 364.717C168.996 364.328 168.819 363.824 168.456 363.94C168.093 364.056 162.295 368.478 162.295 368.478L161.261 363.527Z" fill="#F7A9A0"/>
<path d="M170.115 368.372C169.836 368.066 169.641 367.692 169.55 367.288C169.422 366.88 169.357 366.455 169.359 366.028C169.389 365.653 169.389 365.277 169.359 364.903C169.276 364.542 169.102 364.207 168.855 363.93C168.648 363.683 168.381 363.839 168.149 363.976C167.816 364.192 167.496 364.427 167.191 364.681C166.853 364.944 166.525 365.216 166.182 365.483C165.829 365.748 165.492 366.034 165.174 366.34C165.174 366.365 165.174 366.411 165.209 366.391C165.527 366.199 165.809 365.957 166.107 365.735C166.404 365.513 166.777 365.231 167.115 364.994C167.453 364.757 167.735 364.52 168.058 364.293C168.169 364.218 168.391 364.031 168.562 364.031C168.734 364.031 168.865 364.384 168.925 364.5C169.081 364.833 169.134 365.205 169.076 365.569C169.047 365.938 169.055 366.31 169.102 366.678C169.133 367.03 169.233 367.372 169.394 367.686C169.578 367.959 169.793 368.209 170.034 368.433C170.095 368.453 170.15 368.402 170.115 368.372Z" fill="#263238"/>
<path d="M156.144 369.945C156.144 369.945 160.515 363.895 161.438 362.67C163.283 360.234 171.986 354.355 173.281 353.937C174.577 353.518 175.626 356.135 169.752 360.31C166.656 362.513 166.46 364.591 166.727 365.655C166.994 366.718 168.471 368.518 170.256 368.09C172.041 367.661 172.687 364.762 174.29 364.117C175.893 363.471 175.434 366.764 174.628 368.776C173.751 370.744 172.333 372.423 170.539 373.616C169.092 374.534 164.67 377.65 164.67 377.65L156.144 369.945Z" fill="#F7A9A0"/>
<path d="M172.298 366.34C171.728 367.011 171.093 367.853 170.201 368.085C169.308 368.317 168.547 367.838 167.957 367.167C167.325 366.522 166.964 365.66 166.949 364.757C166.993 363.928 167.277 363.129 167.765 362.458C168.363 361.641 169.077 360.916 169.883 360.305C169.888 360.302 169.892 360.299 169.896 360.295C169.899 360.29 169.901 360.285 169.902 360.28C169.903 360.275 169.903 360.269 169.902 360.264C169.9 360.258 169.897 360.254 169.894 360.25C169.89 360.245 169.886 360.242 169.881 360.24C169.875 360.238 169.87 360.238 169.864 360.238C169.859 360.238 169.854 360.24 169.849 360.243C169.844 360.246 169.841 360.25 169.838 360.254C169.076 360.799 166.701 362.412 166.661 364.818C166.683 365.738 167.056 366.615 167.705 367.268C168.259 367.908 168.991 368.483 169.888 368.372C170.977 368.231 171.718 367.167 172.354 366.355C172.389 366.315 172.328 366.305 172.298 366.34Z" fill="#263238"/>
<path d="M155.75 368.105L162.159 380.645C162.159 380.645 153.698 386.856 148.979 387.25C143.251 387.754 129.179 375.567 127.061 373.48C123.592 370.051 122.931 367.339 125.518 366.925C126.526 366.759 128.039 366.925 130.056 367.576C132.158 368.236 144.678 373.016 148.167 373.429C150.083 373.656 155.75 368.105 155.75 368.105Z" fill="#455A64"/>
<path d="M155.745 368.105L162.159 380.645C162.159 380.645 160.757 381.653 158.77 382.919C155.881 384.734 151.772 387.013 148.979 387.245C143.256 387.749 129.174 375.562 127.061 373.475C124.54 370.994 123.532 368.886 124.111 367.757C124.263 367.516 124.469 367.314 124.714 367.169C124.958 367.023 125.234 366.938 125.518 366.92C126.527 366.759 128.039 366.92 130.056 367.576C132.158 368.236 144.678 373.016 148.167 373.429C150.083 373.656 155.745 368.105 155.745 368.105Z" fill="#455A64"/>
<path d="M162.159 380.645C162.159 380.645 160.757 381.653 158.771 382.919C157.505 383.71 156.018 384.592 154.5 385.354C152.544 386.332 150.552 387.113 148.954 387.245C143.231 387.749 129.148 375.562 127.036 373.475C124.515 370.994 123.506 368.886 124.086 367.757C124.158 367.617 124.257 367.493 124.379 367.394C124.696 367.131 125.083 366.967 125.493 366.92C126.501 366.759 128.014 366.92 130.031 367.576C132.133 368.236 144.653 373.016 148.142 373.429C150.083 373.661 155.745 368.11 155.745 368.11L162.159 380.645Z" fill="#455A64"/>
<path d="M159.542 381.245C158.533 379.419 154.712 371.811 153.996 370.107C153.945 369.991 153.996 369.93 154.076 370.046C157.212 375.436 158.72 379.364 159.622 381.204C159.638 381.25 159.567 381.29 159.542 381.245Z" fill="#263238"/>
<path d="M154.495 385.349C152.538 386.327 150.547 387.108 148.949 387.24C143.226 387.744 129.143 375.557 127.031 373.47C124.51 370.989 123.501 368.881 124.081 367.752C124.152 367.612 124.252 367.488 124.374 367.389L154.495 385.349Z" fill="#263238"/>
<path d="M105.552 397.727C107.568 398.019 112.383 398.453 117.511 398.887C125.689 399.562 134.705 400.218 134.705 400.218L133.192 384.587C133.192 384.587 135.285 381.562 134.901 378.633C134.458 375.325 129.174 368.523 128.609 367.999C126.698 366.219 123.94 365.16 121.298 366.582C120.745 366.883 120.236 367.258 119.785 367.697C119.753 367.724 119.722 367.755 119.694 367.787C119.548 367.928 119.392 368.08 119.246 368.246C112.676 375.34 105.552 397.727 105.552 397.727Z" fill="#455A64"/>
<path d="M117.37 370.006C111.975 377.347 104.952 391.026 107.417 393.199C112.812 397.969 124.056 403.601 129.486 404.065C131.074 404.201 134.024 393.809 132.95 392.468C131.876 391.127 118.328 387.35 118.207 386.317C118.126 385.727 119.896 379.187 121.419 372.875C123.179 365.629 118.913 367.903 117.37 370.006Z" fill="#F7A9A0"/>
<path d="M130.162 391.707C130.162 391.707 135.017 391.571 138.194 391.631C139.963 391.666 142.999 391.994 144.29 392.614C146.221 393.542 153.698 398.665 152.498 400.5C151.409 402.164 145.54 396.971 145.54 396.971C145.54 396.971 151.928 401.7 150.249 403.47C148.57 405.24 142.727 398.463 142.727 398.463C142.727 398.463 149.18 403.475 147.159 405.018C145.646 406.188 139.994 400.354 139.994 400.354C139.994 400.354 145.52 404.69 144.007 405.961C142.318 407.367 136.772 402.325 136.772 402.325C132.37 404.907 129.209 404.342 127.031 403.662C126.501 403.475 130.162 391.707 130.162 391.707Z" fill="#F7A9A0"/>
<path d="M143.438 395.176C144.209 395.705 144.991 396.235 145.712 396.83C146.433 397.424 147.133 398.045 147.794 398.705C148.676 399.552 149.459 400.496 150.128 401.519C148.743 399.879 147.207 398.374 145.54 397.021C144.824 396.426 144.133 395.796 143.412 395.201L143.438 395.176Z" fill="#263238"/>
<path d="M141.239 397.737C142.197 398.458 143.17 399.134 144.093 399.895C145.016 400.656 145.817 401.448 146.68 402.265C146.745 402.33 146.68 402.346 146.619 402.265C145.727 401.483 144.834 400.828 143.932 400.056C143.029 399.285 142.152 398.473 141.219 397.737C141.209 397.747 141.224 397.727 141.239 397.737Z" fill="#263238"/>
<path d="M138.965 399.598C140.454 400.664 141.829 401.88 143.069 403.228C143.135 403.293 143.069 403.304 142.994 403.228C141.648 401.998 140.604 401.019 138.93 399.638C138.895 399.628 138.925 399.577 138.965 399.598Z" fill="#263238"/>
<path d="M124.076 404.075L131.402 391.127C131.402 391.127 118.893 386.756 118.58 386.352C118.268 385.949 120.758 377.781 121.807 372.406C122.856 367.031 120.426 365.75 116.442 370.823C112.459 375.895 105.128 389.307 106.358 392.574C107.589 395.841 124.076 404.075 124.076 404.075Z" fill="#455A64"/>
<path d="M128.74 390.996C128.444 391.395 128.176 391.815 127.938 392.251L127.101 393.623C126.537 394.556 125.992 395.498 125.458 396.446C124.404 398.327 123.36 400.218 122.301 402.093C122.301 402.139 122.342 402.174 122.372 402.134C123.532 400.309 124.676 398.483 125.78 396.623C126.33 395.705 126.859 394.777 127.358 393.835C127.611 393.361 127.863 392.887 128.105 392.413C128.362 391.965 128.588 391.5 128.78 391.021C128.79 390.996 128.755 390.981 128.74 390.996Z" fill="#263238"/>
<path d="M124.026 403.979C121.731 402.764 119.488 401.458 117.229 400.147C114.97 398.836 112.691 397.515 110.558 396.038C109.953 395.619 109.343 395.206 108.748 394.772C108.153 394.339 107.609 393.865 106.994 393.487C106.948 393.456 106.908 393.522 106.943 393.552C107.396 394.016 107.887 394.441 108.41 394.823C108.915 395.236 109.459 395.64 109.994 396.038C111.002 396.809 112.106 397.551 113.195 398.221C115.384 399.623 117.663 400.878 119.977 402.058C121.308 402.734 122.664 403.364 124.01 404.05C124.018 404.048 124.024 404.044 124.03 404.039C124.035 404.033 124.038 404.026 124.04 404.019C124.041 404.012 124.041 404.004 124.038 403.997C124.036 403.99 124.031 403.984 124.026 403.979Z" fill="#263238"/>
<path d="M131.402 391.036C130.273 390.598 119.195 386.377 118.737 386.292C118.737 385.949 119.715 381.991 119.932 381.073C119.982 380.856 120.027 380.645 120.073 380.433C120.239 380.014 120.401 379.591 120.577 379.167C120.804 378.593 121.067 378.034 121.364 377.493C121.369 377.484 121.37 377.473 121.367 377.462C121.365 377.452 121.358 377.443 121.348 377.438C121.339 377.432 121.328 377.431 121.318 377.434C121.307 377.437 121.298 377.444 121.293 377.453C121.006 378.008 120.713 378.567 120.451 379.132L120.315 379.429L120.557 378.371C120.764 377.433 121.006 376.49 121.142 375.537C121.139 375.528 121.133 375.52 121.125 375.515C121.117 375.509 121.108 375.506 121.099 375.506C121.089 375.506 121.08 375.509 121.073 375.515C121.065 375.52 121.059 375.528 121.056 375.537C120.718 376.485 120.481 377.468 120.214 378.436C119.947 379.404 118.409 386.382 118.464 386.428C118.873 386.73 130.303 390.724 131.397 391.132C131.402 391.127 131.433 391.051 131.402 391.036Z" fill="#263238"/>
<path d="M151.732 405.82H125.815V406.984H151.732V405.82Z" fill="#FCB32D"/>
<path opacity="0.1" d="M151.732 405.82H138.688V406.984H151.732V405.82Z" fill="black"/>
<path d="M140.094 406.979H165.35L168.653 389.826H143.392L140.094 406.979Z" fill="#FCB32D"/>
<path d="M152.836 398.403C152.818 398.596 152.841 398.792 152.904 398.976C152.967 399.16 153.067 399.329 153.2 399.471C153.332 399.614 153.493 399.727 153.671 399.804C153.85 399.88 154.043 399.918 154.238 399.915C154.652 399.907 155.05 399.75 155.357 399.472C155.665 399.194 155.862 398.814 155.911 398.403C155.932 398.207 155.911 398.009 155.85 397.821C155.788 397.634 155.687 397.462 155.554 397.317C155.421 397.172 155.259 397.056 155.078 396.978C154.897 396.9 154.702 396.862 154.505 396.865C154.087 396.873 153.686 397.033 153.378 397.317C153.071 397.6 152.878 397.987 152.836 398.403Z" fill="white"/>
<path d="M122.084 367.031C122.241 367.429 124.605 369.819 126.456 369.461C127.061 369.34 126.567 365.997 126.567 365.997V365.74L126.844 362.165L122.402 360.149L121.762 359.886C121.762 359.886 121.762 360.87 121.762 362.095V362.271C121.762 362.337 121.762 362.402 121.762 362.468C121.762 362.649 121.762 362.836 121.762 363.023C121.762 363.209 121.762 363.305 121.762 363.451C121.762 363.597 121.762 363.749 121.762 363.895C121.801 364.946 121.909 365.994 122.084 367.031Z" fill="#F7A9A0"/>
<path d="M121.772 362.085C122.26 363.008 122.944 363.813 123.776 364.444C124.607 365.075 125.567 365.518 126.587 365.74L126.864 362.165L122.422 360.149L121.782 359.886C121.782 359.886 121.772 360.86 121.772 362.085Z" fill="#263238"/>
<path d="M130.787 355.938C132.244 362.06 128.74 363.623 127.419 363.935C126.219 364.218 122.105 365.034 120.022 359.095C117.94 353.155 120.325 350.523 123.047 349.747C125.77 348.97 129.33 349.827 130.787 355.938Z" fill="#F7A9A0"/>
<path d="M129.96 354.93C129.816 354.937 129.671 354.937 129.526 354.93C129.373 354.944 129.218 354.907 129.088 354.824C129.052 354.791 129.028 354.747 129.019 354.698C129.011 354.65 129.019 354.6 129.042 354.557C129.1 354.48 129.177 354.419 129.265 354.381C129.354 354.343 129.451 354.329 129.547 354.34C129.75 354.336 129.948 354.408 130.101 354.542C130.129 354.574 130.147 354.612 130.155 354.654C130.162 354.695 130.159 354.738 130.144 354.777C130.13 354.817 130.105 354.852 130.073 354.879C130.04 354.905 130.002 354.923 129.96 354.93Z" fill="#263238"/>
<path d="M125.997 355.681C126.134 355.637 126.269 355.584 126.401 355.525C126.551 355.491 126.686 355.408 126.784 355.288C126.808 355.244 126.817 355.193 126.809 355.144C126.8 355.095 126.776 355.049 126.738 355.016C126.657 354.96 126.562 354.927 126.464 354.92C126.366 354.913 126.267 354.932 126.179 354.975C125.987 355.04 125.824 355.17 125.72 355.343C125.698 355.385 125.689 355.432 125.694 355.478C125.698 355.524 125.717 355.569 125.746 355.605C125.776 355.641 125.815 355.667 125.86 355.681C125.905 355.695 125.952 355.695 125.997 355.681Z" fill="#263238"/>
<path d="M127.081 357.113C127.081 357.113 127.056 357.113 127.056 357.159C127.152 357.577 127.187 358.071 126.834 358.283C127.293 358.152 127.237 357.496 127.081 357.113Z" fill="#263238"/>
<path d="M126.622 356.745C125.937 356.821 126.118 358.192 126.779 358.117C127.439 358.041 127.197 356.68 126.622 356.745Z" fill="#263238"/>
<path d="M126.36 356.856C126.254 356.952 126.158 357.108 126.012 357.144C125.866 357.179 125.705 357.058 125.573 356.937C125.609 357.199 125.75 357.441 126.037 357.441C126.325 357.441 126.446 357.179 126.471 356.907C126.461 356.886 126.41 356.821 126.36 356.856Z" fill="#263238"/>
<path d="M129.385 356.594C129.385 356.594 129.421 356.594 129.421 356.624C129.466 357.053 129.592 357.532 129.995 357.633C129.537 357.643 129.385 357.002 129.385 356.594Z" fill="#263238"/>
<path d="M129.713 356.095C130.389 355.949 130.636 357.31 130.01 357.446C129.385 357.582 129.148 356.221 129.713 356.095Z" fill="#263238"/>
<path d="M130.016 356.135C130.137 356.186 130.268 356.296 130.394 356.281C130.52 356.266 130.631 356.1 130.701 355.938C130.757 356.196 130.701 356.483 130.48 356.579C130.258 356.675 130.051 356.473 129.945 356.221C129.945 356.191 129.965 356.115 130.016 356.135Z" fill="#263238"/>
<path d="M127.464 360.401C127.58 360.491 127.696 360.617 127.853 360.612C128.01 360.594 128.161 360.543 128.296 360.461C128.296 360.461 128.327 360.461 128.296 360.461C128.246 360.55 128.173 360.624 128.084 360.675C127.995 360.725 127.894 360.751 127.792 360.749C127.703 360.735 127.62 360.695 127.553 360.634C127.487 360.573 127.44 360.493 127.419 360.406C127.419 360.401 127.449 360.391 127.464 360.401Z" fill="#263238"/>
<path d="M128.987 358.586C129.081 358.887 129.161 359.193 129.224 359.503C129.224 359.533 129.158 359.554 129.057 359.579C128.809 359.667 128.541 359.684 128.283 359.63C128.025 359.576 127.787 359.452 127.595 359.271C127.57 359.246 127.595 359.211 127.636 359.226C128.057 359.422 128.531 359.478 128.987 359.387C128.987 359.302 128.629 358.338 128.674 358.328C128.909 358.312 129.145 358.327 129.375 358.374C129.022 357.073 128.457 355.853 128.125 354.547C128.124 354.538 128.126 354.53 128.13 354.522C128.135 354.515 128.141 354.509 128.149 354.506C128.157 354.503 128.166 354.502 128.174 354.504C128.182 354.506 128.19 354.51 128.195 354.517C128.834 355.817 129.34 357.179 129.708 358.581C129.763 358.742 129.118 358.621 128.987 358.586Z" fill="#263238"/>
<path d="M128.997 359.352C128.893 359.63 128.72 359.876 128.493 360.068C128.362 360.166 128.203 360.223 128.039 360.229C127.681 360.229 127.585 359.927 127.575 359.649C127.57 359.501 127.582 359.352 127.611 359.206C128.046 359.398 128.531 359.449 128.997 359.352Z" fill="#263238"/>
<path d="M128.468 360.068C128.336 360.166 128.178 360.223 128.014 360.229C127.656 360.229 127.56 359.927 127.55 359.649C127.728 359.605 127.915 359.623 128.082 359.699C128.248 359.775 128.384 359.905 128.468 360.068Z" fill="#FFA2BE"/>
<path d="M120.073 359.13C120.779 358.974 122.306 356.715 121.797 353.271C121.797 353.271 122.039 356.392 121.883 356.881C121.726 357.37 122.735 355.611 122.362 352.848C123.337 353.33 124.376 353.669 125.447 353.856C126.814 354.007 127.61 353.856 127.686 353.755C127.762 353.654 125.745 353.352 125.125 352.838C125.125 352.838 128.866 353.881 130.49 353.74C130.676 353.74 130.273 349.878 127.525 348.668C124.777 347.458 121.147 349.853 120.259 351.043C120.259 351.043 119.049 351.426 118.005 353.478C116.962 355.53 119.301 359.302 120.073 359.13Z" fill="#263238"/>
<path d="M129.123 356.947C128.906 355.893 129.294 354.93 129.995 354.769C130.696 354.607 131.442 355.364 131.664 356.423C131.886 357.481 131.493 358.439 130.792 358.606C130.091 358.772 129.345 357.98 129.123 356.947ZM129.38 356.896C129.572 357.809 130.182 358.459 130.737 358.349C131.291 358.238 131.594 357.391 131.407 356.473C131.221 355.555 130.605 354.91 130.046 355.026C129.486 355.142 129.194 355.938 129.385 356.871L129.38 356.896Z" fill="#0085CC"/>
<path d="M124.303 357.925C124.254 357.571 124.31 357.21 124.464 356.887C124.618 356.563 124.863 356.292 125.168 356.107C125.474 355.921 125.828 355.829 126.185 355.841C126.543 355.854 126.889 355.97 127.181 356.177C127.473 356.384 127.699 356.671 127.829 357.004C127.96 357.337 127.991 357.701 127.918 358.051C127.844 358.402 127.67 358.723 127.417 358.975C127.163 359.228 126.842 359.401 126.491 359.473C125.996 359.558 125.487 359.442 125.077 359.152C124.666 358.862 124.388 358.42 124.303 357.925ZM124.56 357.87C124.646 358.162 124.815 358.423 125.046 358.621C125.278 358.819 125.562 358.945 125.864 358.984C126.166 359.023 126.473 358.974 126.747 358.841C127.022 358.709 127.251 358.499 127.408 358.238C127.566 357.977 127.643 357.676 127.632 357.371C127.621 357.067 127.521 356.772 127.345 356.524C127.169 356.275 126.925 356.083 126.642 355.971C126.358 355.859 126.048 355.832 125.75 355.893C125.331 355.999 124.971 356.266 124.748 356.636C124.525 357.007 124.458 357.45 124.56 357.87Z" fill="#0085CC"/>
<path d="M127.762 357.028C128.654 356.488 129.153 356.715 129.158 356.715L129.274 356.483C129.274 356.483 128.654 356.18 127.625 356.801L127.762 357.028Z" fill="#0085CC"/>
<path d="M124.394 357.728V357.451C124.222 357.451 121.308 357.491 120.864 357.557C120.42 357.623 119.483 358.429 119.382 358.52L119.553 358.717C119.946 358.348 120.395 358.045 120.884 357.819C121.242 357.779 122.936 357.764 124.394 357.728Z" fill="#0085CC"/>
<path d="M121.106 359.347C121.106 359.347 119.458 357.607 118.651 358.223C117.844 358.838 119.276 361.5 120.37 361.752C120.508 361.792 120.652 361.804 120.795 361.786C120.937 361.769 121.075 361.723 121.199 361.651C121.323 361.578 121.431 361.482 121.516 361.367C121.602 361.251 121.663 361.12 121.696 360.981L121.106 359.347Z" fill="#F7A9A0"/>
<path d="M119.079 358.964C119.079 358.964 119.079 358.964 119.079 358.994C119.437 359.11 119.767 359.301 120.046 359.553C120.326 359.804 120.55 360.112 120.703 360.456C120.65 360.389 120.584 360.335 120.508 360.297C120.432 360.258 120.349 360.237 120.264 360.234C120.179 360.231 120.094 360.247 120.016 360.28C119.938 360.313 119.868 360.363 119.81 360.426C119.81 360.426 119.81 360.466 119.81 360.461C119.932 360.4 120.069 360.379 120.203 360.401C120.337 360.423 120.461 360.486 120.557 360.582C120.716 360.735 120.858 360.904 120.98 361.086C121.026 361.147 121.137 361.086 121.101 361.021C121 360.108 120.088 358.918 119.079 358.964Z" fill="#263238"/>
<path d="M126.597 365.977L125.931 369.406L121.928 365.912L120.814 367.263C120.814 367.263 125.442 373.313 125.412 373.006L126.194 370.011L128.452 371.554L127.469 367.243L126.597 365.977Z" fill="#EBEBEB"/>
<path d="M127.51 367.278C127.51 367.253 127.449 367.248 127.454 367.278C127.54 368.014 128.145 370.596 128.281 371.312C128.185 371.241 126.204 369.971 126.194 370.001C125.992 370.505 125.417 372.673 125.387 372.865C124.575 371.967 121.681 368.08 120.768 367.258C120.763 367.255 120.756 367.254 120.75 367.255C120.744 367.256 120.738 367.259 120.734 367.264C120.73 367.268 120.727 367.274 120.726 367.28C120.724 367.286 120.725 367.293 120.728 367.298C121.474 368.266 125.377 373.288 125.422 373.263C125.75 372.225 126.021 371.169 126.234 370.102C126.988 370.703 127.782 371.254 128.609 371.75C128.483 370.959 127.752 368.039 127.51 367.278Z" fill="#263238"/>
</g>
<defs>
<linearGradient id="paint0_linear_46_14" x1="201.25" y1="273.961" x2="201.25" y2="466.537" gradientUnits="userSpaceOnUse">
<stop stop-color="#0077B8" stop-opacity="0.4"/>
<stop offset="1" stop-color="#000E8F" stop-opacity="0.2"/>
</linearGradient>
<linearGradient id="paint1_linear_46_14" x1="263.045" y1="447.064" x2="263.045" y2="460.395" gradientUnits="userSpaceOnUse">
<stop stop-color="#EBEBEB" stop-opacity="0"/>
<stop offset="1" stop-color="#2E4C98" stop-opacity="0.4"/>
</linearGradient>
<linearGradient id="paint2_linear_46_14" x1="178.999" y1="454.309" x2="178.999" y2="479.096" gradientUnits="userSpaceOnUse">
<stop stop-color="#EBEBEB" stop-opacity="0"/>
<stop offset="1" stop-color="#2E4C98" stop-opacity="0.4"/>
</linearGradient>
<clipPath id="clip0_46_14">
<rect width="390" height="844" rx="45" fill="white"/>
</clipPath>
</defs>
</svg>
