<svg width="11" height="11" viewBox="0 0 11 11" fill="none" xmlns="http://www.w3.org/2000/svg">
<path fill-rule="evenodd" clip-rule="evenodd" d="M4.65413 0.941278C4.53517 0.941279 4.42537 0.997244 4.36649 1.08788L1.97213 4.77344C1.65474 5.26199 1.52155 5.82601 1.59159 6.38491L1.8443 8.40155C1.88926 8.76036 2.21047 9.04457 2.61921 9.0872L4.13415 9.24524C5.13424 9.34956 6.14825 9.25913 7.10392 8.98039C7.57587 8.84273 7.9539 8.5286 8.13603 8.12273L9.35546 5.40522C9.38527 5.33878 9.40588 5.26944 9.41683 5.19869C9.50931 4.60122 8.91289 4.09722 8.23546 4.2004L5.79113 4.57269C5.01901 4.69029 4.35214 4.09278 4.50284 3.41837L4.979 1.2874C5.01907 1.10808 4.86251 0.941277 4.65413 0.941278ZM3.43383 0.62194C3.68363 0.237429 4.14948 3.96477e-06 4.65412 0C5.53815 -6.95691e-06 6.20234 0.707638 6.03235 1.4684L5.55619 3.59937C5.55415 3.6085 5.55525 3.61408 5.55668 3.61808C5.55845 3.62301 5.56207 3.62879 5.56805 3.63415C5.57403 3.63951 5.58055 3.64281 5.58613 3.64447C5.59067 3.64581 5.597 3.64689 5.60745 3.6453L8.05178 3.27301C9.44445 3.06089 10.6706 4.09701 10.4805 5.3253C10.4579 5.47075 10.4156 5.6133 10.3543 5.74989L9.13487 8.4674C8.83626 9.13284 8.21648 9.64786 7.44269 9.87356C6.33721 10.196 5.16423 10.3006 4.00736 10.1799L2.49242 10.0219C1.58776 9.92752 0.876843 9.29849 0.77733 8.50437L0.524624 6.48773C0.429869 5.73156 0.610069 4.96848 1.03948 4.3075L3.43383 0.62194Z" fill="#468CE7"/>
</svg>
