<svg width="390" height="97" viewBox="0 0 390 97" fill="none" xmlns="http://www.w3.org/2000/svg">
    <g clip-path="url(#clip0_49_20248)" filter="url(#filter0_d_49_20248)">
        <mask id="path-1-inside-1_49_20248" fill="white">
            <path fill-rule="evenodd" clip-rule="evenodd" d="M157.82 37.8527C155.813 34.3626 152.404 31.7263 149.359 30H12C5.37258 30 0 35.3726 0 42V99C0 105.627 5.37258 111 12 111H378C384.627 111 390 105.627 390 99V42C390 35.3726 384.627 30 378 30H240.641C237.596 31.7263 234.187 34.3626 232.18 37.8527C231.698 40.136 231.005 42.3755 230.107 44.542C228.198 49.1523 225.399 53.3414 221.87 56.8701C218.341 60.3987 214.152 63.1977 209.542 65.1074C204.932 67.0171 199.99 68 195 68C190.01 68 185.068 67.0171 180.458 65.1074C175.848 63.1977 171.659 60.3987 168.13 56.8701C164.601 53.3414 161.802 49.1523 159.893 44.542C158.995 42.3755 158.302 40.136 157.82 37.8527Z"/>
        </mask>
        <path fill-rule="evenodd" clip-rule="evenodd" d="M157.82 37.8527C155.813 34.3626 152.404 31.7263 149.359 30H12C5.37258 30 0 35.3726 0 42V99C0 105.627 5.37258 111 12 111H378C384.627 111 390 105.627 390 99V42C390 35.3726 384.627 30 378 30H240.641C237.596 31.7263 234.187 34.3626 232.18 37.8527C231.698 40.136 231.005 42.3755 230.107 44.542C228.198 49.1523 225.399 53.3414 221.87 56.8701C218.341 60.3987 214.152 63.1977 209.542 65.1074C204.932 67.0171 199.99 68 195 68C190.01 68 185.068 67.0171 180.458 65.1074C175.848 63.1977 171.659 60.3987 168.13 56.8701C164.601 53.3414 161.802 49.1523 159.893 44.542C158.995 42.3755 158.302 40.136 157.82 37.8527Z" fill="white"/>
        <path d="M149.359 30L149.853 29.1301L149.623 29H149.359V30ZM157.82 37.8527L158.799 37.646L158.766 37.4912L158.687 37.3541L157.82 37.8527ZM240.641 30V29H240.377L240.147 29.1301L240.641 30ZM232.18 37.8527L231.313 37.3541L231.234 37.4912L231.201 37.646L232.18 37.8527ZM230.107 44.542L229.184 44.1593V44.1593L230.107 44.542ZM221.87 56.8701L221.163 56.163V56.163L221.87 56.8701ZM209.542 65.1074L209.159 64.1835V64.1835L209.542 65.1074ZM180.458 65.1074L180.075 66.0313V66.0313L180.458 65.1074ZM168.13 56.8701L167.423 57.5772L168.13 56.8701ZM159.893 44.542L160.816 44.1593V44.1593L159.893 44.542ZM148.866 30.8699C151.833 32.5523 155.071 35.0788 156.953 38.3513L158.687 37.3541C156.554 33.6465 152.974 30.9004 149.853 29.1301L148.866 30.8699ZM12 31H149.359V29H12V31ZM1 42C1 35.9249 5.92487 31 12 31V29C4.8203 29 -1 34.8203 -1 42H1ZM1 99V42H-1V99H1ZM12 110C5.92487 110 1 105.075 1 99H-1C-1 106.18 4.8203 112 12 112V110ZM378 110H12V112H378V110ZM389 99C389 105.075 384.075 110 378 110V112C385.18 112 391 106.18 391 99H389ZM389 42V99H391V42H389ZM378 31C384.075 31 389 35.9249 389 42H391C391 34.8203 385.18 29 378 29V31ZM240.641 31H378V29H240.641V31ZM233.047 38.3513C234.929 35.0788 238.167 32.5523 241.134 30.8699L240.147 29.1301C237.026 30.9004 233.446 33.6465 231.313 37.3541L233.047 38.3513ZM231.201 37.646C230.732 39.8693 230.057 42.0499 229.184 44.1593L231.031 44.9247C231.952 42.7012 232.663 40.4028 233.158 38.0593L231.201 37.646ZM229.184 44.1593C227.324 48.6483 224.599 52.7272 221.163 56.163L222.577 57.5772C226.199 53.9557 229.071 49.6564 231.031 44.9247L229.184 44.1593ZM221.163 56.163C217.727 59.5987 213.648 62.3241 209.159 64.1835L209.925 66.0313C214.656 64.0714 218.956 61.1987 222.577 57.5772L221.163 56.163ZM209.159 64.1835C204.67 66.043 199.859 67 195 67V69C200.122 69 205.193 67.9912 209.925 66.0313L209.159 64.1835ZM195 67C190.141 67 185.33 66.043 180.841 64.1835L180.075 66.0313C184.807 67.9912 189.878 69 195 69V67ZM180.841 64.1835C176.352 62.3241 172.273 59.5987 168.837 56.1629L167.423 57.5772C171.044 61.1986 175.344 64.0714 180.075 66.0313L180.841 64.1835ZM168.837 56.163C165.401 52.7272 162.676 48.6483 160.816 44.1593L158.969 44.9247C160.929 49.6563 163.801 53.9557 167.423 57.5772L168.837 56.163ZM160.816 44.1593C159.943 42.0499 159.268 39.8693 158.799 37.646L156.842 38.0593C157.337 40.4028 158.048 42.7012 158.969 44.9247L160.816 44.1593Z" fill="#D1D1D1" mask="url(#path-1-inside-1_49_20248)"/>
        <circle cx="195" cy="31" r="29.5" fill="white" stroke="#D1D1D1"/>
        <path d="M206.075 26.4626L197.413 19.5376C196.075 18.4626 193.913 18.4626 192.588 19.5251L183.925 26.4626C182.95 27.2376 182.325 28.8751 182.538 30.1001L184.2 40.0501C184.5 41.8251 186.2 43.2626 188 43.2626H202C203.788 43.2626 205.5 41.8126 205.8 40.0501L207.463 30.1001C207.663 28.8751 207.038 27.2376 206.075 26.4626ZM195 35.3751C194.171 35.3751 193.376 35.0458 192.79 34.4598C192.204 33.8737 191.875 33.0789 191.875 32.2501C191.875 31.4213 192.204 30.6264 192.79 30.0403C193.376 29.4543 194.171 29.1251 195 29.1251C195.829 29.1251 196.624 29.4543 197.21 30.0403C197.796 30.6264 198.125 31.4213 198.125 32.2501C198.125 33.0789 197.796 33.8737 197.21 34.4598C196.624 35.0458 195.829 35.3751 195 35.3751Z" fill="#9A9A9A"/>
        <path d="M303 62.75C299.83 62.75 297.25 60.17 297.25 57C297.25 53.83 299.83 51.25 303 51.25C306.17 51.25 308.75 53.83 308.75 57C308.75 60.17 306.17 62.75 303 62.75ZM303 52.75C301.874 52.7526 300.794 53.2013 299.998 53.9977C299.201 54.7942 298.753 55.8736 298.75 57C298.753 58.1264 299.201 59.2058 299.998 60.0023C300.794 60.7987 301.874 61.2474 303 61.25C304.126 61.2474 305.206 60.7987 306.002 60.0023C306.799 59.2058 307.247 58.1264 307.25 57C307.247 55.8736 306.799 54.7942 306.002 53.9977C305.206 53.2013 304.126 52.7526 303 52.75ZM311.59 72.75C311.18 72.75 310.84 72.41 310.84 72C310.84 68.55 307.32 65.75 303 65.75C298.68 65.75 295.16 68.55 295.16 72C295.16 72.41 294.82 72.75 294.41 72.75C294 72.75 293.66 72.41 293.66 72C293.66 67.73 297.85 64.25 303 64.25C308.15 64.25 312.34 67.73 312.34 72C312.34 72.41 312 72.75 311.59 72.75Z" fill="#9A9A9A"/>
        <path d="M90.0625 44.4975V61.885C90.0625 62.7725 89.1625 63.385 88.35 63.0475C86.025 62.0725 83.1375 61.2225 81.0875 60.9475L80.7 60.8975C79.4875 60.7475 78.5 59.635 78.5 58.4225V43.56C78.5 42.06 79.7125 40.8475 81.2125 40.8475H81.3C83.65 41.0475 87.1125 42.1475 89.4 43.385C89.6015 43.4923 89.7697 43.6527 89.8865 43.8488C90.0033 44.0449 90.0642 44.2693 90.0625 44.4975ZM100.788 40.8475H100.713C100.413 40.8725 100.087 40.91 99.75 40.9725C98.2125 41.2225 96.3875 41.7475 94.75 42.3975C93.975 42.71 93.25 43.0475 92.6125 43.385C92.2 43.61 91.9375 44.035 91.9375 44.4975V61.885C91.9375 62.7725 92.8375 63.385 93.65 63.0475C95.975 62.0725 98.8625 61.2225 100.913 60.9475L101.3 60.8975C102.512 60.7475 103.5 59.635 103.5 58.4225V43.56C103.5 42.06 102.288 40.8475 100.788 40.8475ZM100.088 54.16C100.088 54.6475 99.7375 54.86 99.3125 54.6225L97.9875 53.885C97.9071 53.848 97.8197 53.8289 97.7313 53.8289C97.6428 53.8289 97.5554 53.848 97.475 53.885L96.15 54.6225C95.725 54.86 95.375 54.6475 95.375 54.16V50.3225C95.375 49.7475 95.85 49.2725 96.425 49.2725H99.05C99.625 49.2725 100.1 49.7475 100.1 50.3225V54.16H100.088Z" fill="url(#paint0_linear_49_20248)" style="mix-blend-mode:multiply"/>
    </g>
    <defs>
        <filter id="filter0_d_49_20248" x="-4" y="0" width="398" height="104" filterUnits="userSpaceOnUse" color-interpolation-filters="sRGB">
            <feFlood flood-opacity="0" result="BackgroundImageFix"/>
            <feColorMatrix in="SourceAlpha" type="matrix" values="0 0 0 0 0 0 0 0 0 0 0 0 0 0 0 0 0 0 127 0" result="hardAlpha"/>
            <feOffset dy="3"/>
            <feGaussianBlur stdDeviation="2"/>
            <feComposite in2="hardAlpha" operator="out"/>
            <feColorMatrix type="matrix" values="0 0 0 0 0.145098 0 0 0 0 0.145098 0 0 0 0 0.145098 0 0 0 0.25 0"/>
            <feBlend mode="normal" in2="BackgroundImageFix" result="effect1_dropShadow_49_20248"/>
            <feBlend mode="normal" in="SourceGraphic" in2="effect1_dropShadow_49_20248" result="shape"/>
        </filter>
        <linearGradient id="paint0_linear_49_20248" x1="91" y1="40.8475" x2="91" y2="63.1417" gradientUnits="userSpaceOnUse">
            <stop stop-color="#0085CC"/>
            <stop offset="0.859375" stop-color="#000E8F"/>
        </linearGradient>
        <clipPath id="clip0_49_20248">
            <rect width="390" height="96" fill="white" transform="translate(0 1)"/>
        </clipPath>
    </defs>
</svg>
