<svg width="24" height="24" viewBox="0 0 24 24" fill="none" xmlns="http://www.w3.org/2000/svg">
<path d="M13.7349 19.3782C13.6941 19.4262 13.6514 19.4713 13.6071 19.5128L13.5934 19.5257L13.5803 19.5392C13.4564 19.6677 13.3156 19.7795 13.1629 19.8728C13.368 19.8603 13.5718 19.845 13.7739 19.8273L13.7349 19.3782ZM13.7349 19.3782L13.71 19.08C13.14 19.13 12.56 19.16 11.98 19.16C11.41 19.16 10.84 19.13 10.28 19.08L13.7349 19.3782ZM18.3772 11.5064L18.3772 11.5064L19.5054 13.3833C19.8355 13.9453 19.8872 14.5382 19.7078 15.0167L19.7066 15.0198L19.7066 15.0198C19.5206 15.5227 19.0923 15.9437 18.4982 16.1367L18.4929 16.1385L18.4929 16.1385C17.454 16.4848 16.4016 16.7362 15.3235 16.9208L15.3159 16.9221L15.3159 16.9221C15.2799 16.9286 15.2414 16.934 15.1837 16.9419L15.1784 16.9426C15.1309 16.9491 15.0688 16.9575 15.0036 16.9689L14.5787 17.0269L14.566 17.0286L14.566 17.0287C14.325 17.0658 14.0845 17.0935 13.8346 17.112L13.8271 17.1126L13.8196 17.1133C12.6059 17.2278 11.3842 17.2278 10.1704 17.1133L10.165 17.1128L10.165 17.1128C9.93144 17.0925 9.72005 17.074 9.52138 17.0469L9.51213 17.0456L9.50286 17.0446C9.31959 17.0242 9.15986 17.0063 9.00334 16.9802L8.97577 16.9756L8.94794 16.9731C8.87694 16.9666 8.80003 16.9532 8.68421 16.9321L8.67664 16.9307L8.66905 16.9295C7.59245 16.7565 6.52199 16.4867 5.47729 16.1385L18.3772 11.5064ZM18.3772 11.5064L18.3728 11.4989M18.3772 11.5064L18.3728 11.4989M18.3728 11.4989C18.2075 11.2166 18.0714 10.8484 17.9769 10.5053C17.8827 10.1629 17.81 9.77334 17.81 9.44V7.58C17.81 4.36644 15.1978 1.75943 11.979 1.75C8.77444 1.75056 6.16004 4.36381 6.16004 7.58V9.45C6.16004 9.78365 6.08733 10.1737 5.99114 10.518M18.3728 11.4989L5.99114 10.518M5.58039 11.5205L4.4548 13.3931C4.45447 13.3937 4.45413 13.3943 4.45379 13.3948C4.15835 13.8932 4.10413 14.475 4.30233 15.0068C4.40182 15.2708 4.55885 15.5093 4.76202 15.705C4.96527 15.9008 5.20958 16.0489 5.47721 16.1385L5.58039 11.5205ZM5.58039 11.5205C5.58083 11.5197 5.58127 11.519 5.58171 11.5183M5.58039 11.5205L5.58171 11.5183M5.99114 10.518C5.89526 10.8612 5.75557 11.2324 5.58171 11.5183M5.99114 10.518L5.58171 11.5183M10.9423 10.0177C10.6591 9.73455 10.5 9.35048 10.5 8.95V5.85C10.5 5.44952 10.6591 5.06545 10.9423 4.78227C11.2255 4.49909 11.6096 4.34 12.01 4.34C12.4105 4.34 12.7946 4.49909 13.0778 4.78227C13.361 5.06545 13.52 5.44952 13.52 5.85V8.95C13.52 9.35048 13.361 9.73455 13.0778 10.0177C12.7946 10.3009 12.4105 10.46 12.01 10.46C11.6096 10.46 11.2255 10.3009 10.9423 10.0177Z" stroke="#252525" stroke-width="1.5"/>
</svg>
