<svg width="24" height="24" viewBox="0 0 24 24" fill="none" xmlns="http://www.w3.org/2000/svg">
<path d="M11.9999 12.75C8.82991 12.75 6.24991 10.17 6.24991 7C6.24991 3.83 8.82991 1.25 11.9999 1.25C15.1699 1.25 17.7499 3.83 17.7499 7C17.7499 10.17 15.1699 12.75 11.9999 12.75ZM11.9999 2.75C10.8736 2.75264 9.79408 3.20126 8.99763 3.99771C8.20117 4.79417 7.75255 5.87364 7.74991 7C7.75255 8.12636 8.20117 9.20583 8.99763 10.0023C9.79408 10.7987 10.8736 11.2474 11.9999 11.25C13.1263 11.2474 14.2057 10.7987 15.0022 10.0023C15.7987 9.20583 16.2473 8.12636 16.2499 7C16.2473 5.87364 15.7987 4.79417 15.0022 3.99771C14.2057 3.20126 13.1263 2.75264 11.9999 2.75ZM20.5899 22.75C20.1799 22.75 19.8399 22.41 19.8399 22C19.8399 18.55 16.3199 15.75 11.9999 15.75C7.67991 15.75 4.15991 18.55 4.15991 22C4.15991 22.41 3.81991 22.75 3.40991 22.75C2.99991 22.75 2.65991 22.41 2.65991 22C2.65991 17.73 6.84991 14.25 11.9999 14.25C17.1499 14.25 21.3399 17.73 21.3399 22C21.3399 22.41 20.9999 22.75 20.5899 22.75Z" fill="#9A9A9A"/>
</svg>
    