<svg width="41" height="40" viewBox="0 0 41 40" fill="none" xmlns="http://www.w3.org/2000/svg">
<rect x="0.5" width="40" height="40" rx="8" fill="url(#paint0_linear_49_20088)"/>
<path opacity="0.4" d="M31.8334 15.4608V22.1666H27.4134C26.6876 22.1666 25.8317 21.6466 25.4959 21.0075L24.3692 18.8733C24.0659 18.2991 23.6326 18.3316 23.3942 18.9275L20.9026 25.2216C20.6317 25.9258 20.1767 25.9258 19.8951 25.2216L18.6601 22.1016C18.3676 21.3433 17.4576 20.7258 16.6451 20.7258L10.1667 20.7583V15.4608C10.1667 11.5175 12.5176 9.16663 16.4609 9.16663H25.5392C29.4826 9.16663 31.8334 11.5175 31.8334 15.4608Z" fill="white"/>
<path d="M31.8334 24.5381V22.1656H27.4134C26.6876 22.1656 25.8318 21.6456 25.4959 21.0064L24.3693 18.8722C24.0659 18.2981 23.6326 18.3306 23.3943 18.9264L20.9026 25.2206C20.6318 25.9247 20.1768 25.9247 19.8951 25.2206L18.6601 22.1006C18.3676 21.3422 17.4576 20.7247 16.6451 20.7247L10.1668 20.7572V24.5381C10.1668 28.4164 12.4418 30.7564 16.2659 30.8214C16.3851 30.8322 16.5151 30.8322 16.6343 30.8322H25.3009C25.4634 30.8322 25.6259 30.8322 25.7776 30.8214C29.5801 30.7347 31.8334 28.4056 31.8334 24.5381V24.5381ZM10.1668 20.7583V24.3441C10.1451 23.9975 10.1343 23.6291 10.1343 23.25V20.7583H10.1668Z" fill="#FEFEFE"/>
<defs>
<linearGradient id="paint0_linear_49_20088" x1="-2.28572" y1="-4.83332" x2="57.9657" y2="7.35841" gradientUnits="userSpaceOnUse">
<stop offset="0.244792" stop-color="#0085CC" stop-opacity="0.4"/>
<stop offset="0.244892" stop-color="#0087CD" stop-opacity="0.410723"/>
<stop offset="0.961333" stop-color="#00DEEC" stop-opacity="0.8"/>
</linearGradient>
</defs>
</svg>
