<svg width="51" height="16" viewBox="0 0 51 16" fill="none" xmlns="http://www.w3.org/2000/svg">
<rect x="0.5" width="50" height="15.3846" rx="7.69231" fill="#EBEBEB"/>
<path d="M10.376 11.3334L8.136 5.73337H9.272L10.52 8.94137C10.584 9.10671 10.64 9.25604 10.688 9.38937C10.736 9.51737 10.7787 9.63471 10.816 9.74137C10.8533 9.84804 10.8853 9.95204 10.912 10.0534C10.944 10.1547 10.9787 10.2614 11.016 10.3734H10.792C10.8293 10.2294 10.8693 10.088 10.912 9.94937C10.9547 9.80537 11.0027 9.65337 11.056 9.49337C11.1147 9.33337 11.184 9.14937 11.264 8.94137L12.432 5.73337H13.576L11.32 11.3334H10.376ZM14.3989 11.3334V7.11737H15.3829V11.3334H14.3989ZM14.8789 6.22137C14.6816 6.22137 14.5269 6.17337 14.4149 6.07737C14.3083 5.97604 14.2549 5.83471 14.2549 5.65337C14.2549 5.48271 14.3109 5.34404 14.4229 5.23737C14.5349 5.13071 14.6869 5.07737 14.8789 5.07737C15.0816 5.07737 15.2363 5.12804 15.3429 5.22937C15.4549 5.32537 15.5109 5.46671 15.5109 5.65337C15.5109 5.81871 15.4549 5.95471 15.3429 6.06137C15.2309 6.16804 15.0763 6.22137 14.8789 6.22137ZM18.6067 11.4134C18.164 11.4134 17.772 11.32 17.4307 11.1334C17.0947 10.9467 16.8307 10.6934 16.6387 10.3734C16.452 10.048 16.3587 9.67737 16.3587 9.26137C16.3587 8.93071 16.412 8.62937 16.5187 8.35737C16.6254 8.08537 16.772 7.85071 16.9587 7.65337C17.1507 7.45071 17.3774 7.29604 17.6387 7.18937C17.9054 7.07737 18.196 7.02137 18.5107 7.02137C18.788 7.02137 19.0467 7.07471 19.2867 7.18137C19.5267 7.28804 19.7347 7.43471 19.9107 7.62137C20.0867 7.80271 20.22 8.02137 20.3107 8.27737C20.4067 8.52804 20.452 8.80271 20.4467 9.10137L20.4387 9.44537H17.0227L16.8387 8.77337H19.6147L19.4867 8.90937V8.73337C19.4707 8.56804 19.4174 8.42404 19.3267 8.30137C19.236 8.17337 19.1187 8.07471 18.9747 8.00537C18.836 7.93071 18.6814 7.89337 18.5107 7.89337C18.2494 7.89337 18.028 7.94404 17.8467 8.04537C17.6707 8.14671 17.5374 8.29337 17.4467 8.48537C17.356 8.67204 17.3107 8.90671 17.3107 9.18937C17.3107 9.46137 17.3667 9.69871 17.4787 9.90137C17.596 10.104 17.7587 10.2614 17.9667 10.3734C18.18 10.48 18.428 10.5334 18.7107 10.5334C18.908 10.5334 19.0894 10.5014 19.2547 10.4374C19.42 10.3734 19.5987 10.2587 19.7907 10.0934L20.2787 10.7734C20.1347 10.9067 19.9694 11.0214 19.7827 11.1174C19.6014 11.208 19.4094 11.28 19.2067 11.3334C19.004 11.3867 18.804 11.4134 18.6067 11.4134ZM22.2321 11.3334L20.8161 7.11737L21.8241 7.10937L22.7681 10.1174L22.5921 10.1014L23.6161 7.74937H24.2081L25.2561 10.1014L25.0481 10.1254L26.0001 7.11737H27.0081L25.5841 11.3334H24.8801L23.8001 8.80537L23.9521 8.82137L22.9281 11.3334H22.2321Z" fill="#0085CC"/>
<g clip-path="url(#clip0_49_20082)">
<path d="M38.9508 8.33332H40.6175M39.923 11.1111C41.4572 11.1111 42.7008 9.86749 42.7008 8.33332C42.7008 6.79915 41.4572 5.55554 39.923 5.55554C38.3889 5.55554 37.1453 6.79915 37.1453 8.33332C37.1453 9.86749 38.3889 11.1111 39.923 11.1111Z" stroke="#0085CC" stroke-width="0.9" stroke-linecap="round" stroke-linejoin="round"/>
<path d="M40.0618 9.16667L40.8951 8.33333L40.0618 7.5" stroke="#0085CC" stroke-width="0.9" stroke-linecap="round" stroke-linejoin="round"/>
</g>
<defs>
<clipPath id="clip0_49_20082">
<rect width="6.66667" height="6.66667" fill="white" transform="translate(36.5896 5)"/>
</clipPath>
</defs>
</svg>
